<svg width="428" height="278" fill="none" xmlns="http://www.w3.org/2000/svg"><path d="M8.07 170.987C38.58 110.085 37.279 25.946 115.655 2.047c29.962-9.137 73.134 13.564 104.913 43.427 24.185 22.725 95.88-7.788 172.29 10.22 26.945 6.35 38.978 40.441 34.069 50.617-31.5 65.287-55.297 208.13-190.299 162.07-41.367-14.114-283.503 12.285-228.558-97.394z" fill="#9499EA" fill-opacity=".1"/><path d="M273.34 255.103h50.001a4.93 4.93 0 004.918-4.918l-24.59-50.82h-50.001l13.525 50.82c1.23 5.738 3.442 4.918 6.147 4.918z" fill="#D8D6DD"/><path d="M318.833 247.726h-54.097l-15.576-55.738h45.492l24.181 55.738z" fill="#BFBFBF"/><path d="M135.626 19.446h267.645a6.34 6.34 0 016.342 6.342v173.794a6.342 6.342 0 01-6.342 6.342H135.626a6.342 6.342 0 01-6.343-6.342V25.788a6.34 6.34 0 016.343-6.342z" fill="#293666"/><path d="M143.641 32.56h251.613a5.343 5.343 0 015.342 5.342v130.711a5.345 5.345 0 01-5.342 5.34H143.641a5.346 5.346 0 01-5.342-5.34V37.903a5.342 5.342 0 015.342-5.343z" fill="#fff"/><path d="M284.887 247.724h-48.909c-2.441 0-4.439 3.371-4.439 7.493h57.787c0-4.12-1.997-7.493-4.439-7.493z" fill="#D8D6DD"/><path d="M143.593 32.584h251.725a5.296 5.296 0 015.293 5.294v3.12H138.299v-3.12a5.297 5.297 0 015.294-5.294z" fill="#F2F5F8"/><path d="M143.004 38.319a1.527 1.527 0 100-3.055 1.527 1.527 0 000 3.055z" fill="#FA538D"/><path d="M149.011 38.319a1.528 1.528 0 100-3.055 1.528 1.528 0 000 3.055z" fill="#FAB353"/><path d="M155.017 38.319a1.527 1.527 0 100-3.053 1.527 1.527 0 000 3.053z" fill="#9DC925"/><path d="M144.645 50.89h6.633v8.594h-6.633V50.89z" fill="#FF6369"/><path d="M167.861 50.89h1.208v8.594h-1.208V50.89zm-15.226 4.373h3.92v4.221h-3.92v-4.221z" fill="#F9B25F"/><path d="M157.76 55.263h3.92v4.221h-3.92v-4.221z" fill="#8FBA73"/><path d="M170.213 55.263h3.92v4.221h-3.92v-4.221z" fill="#FF6369"/><path d="M144.902 85.165h44.711a1.21 1.21 0 110 2.417h-44.711a1.21 1.21 0 110-2.416zm49.511 0h68.49a1.21 1.21 0 110 2.417h-68.49a1.209 1.209 0 010-2.416zm-49.511 5.941h106.252a1.207 1.207 0 110 2.416H144.902a1.21 1.21 0 110-2.416zm0 5.941h16.459a1.21 1.21 0 110 2.416h-16.459a1.21 1.21 0 110-2.416zm22.937 0h32.406a1.207 1.207 0 110 2.416h-32.406a1.207 1.207 0 110-2.416zm-22.937 5.303h32.124a1.208 1.208 0 110 2.416h-32.124a1.208 1.208 0 110-2.416zm38.882 0h32.406a1.208 1.208 0 110 2.416h-32.406a1.207 1.207 0 010-2.416zm22.098-5.303h50.867a1.207 1.207 0 110 2.416h-50.867a1.207 1.207 0 110-2.416zm-60.98 17.474h44.711a1.208 1.208 0 110 2.417h-44.711a1.212 1.212 0 01-1.209-1.209 1.212 1.212 0 011.209-1.208zm49.511 0h68.49a1.208 1.208 0 110 2.417h-68.49a1.212 1.212 0 01-1.208-1.209 1.207 1.207 0 011.208-1.208zm-49.511 5.94h106.252a1.21 1.21 0 01.854 2.063 1.206 1.206 0 01-.854.354H144.902a1.208 1.208 0 110-2.417z" fill="#E5E8F5"/><path d="M161.36 126.4h-16.458a1.209 1.209 0 100 2.417h16.458a1.208 1.208 0 100-2.417zm38.885 0h-32.404a1.208 1.208 0 000 2.417h32.404a1.208 1.208 0 000-2.417zm-23.22 5.305h-32.123a1.208 1.208 0 100 2.416h32.123a1.208 1.208 0 100-2.416zm39.165 0h-32.404a1.208 1.208 0 000 2.416h32.404a1.208 1.208 0 000-2.416z" fill="#B0BEC5"/><path d="M205.882 126.4h50.867a1.21 1.21 0 01.854 2.063 1.206 1.206 0 01-.854.354h-50.867a1.206 1.206 0 01-1.208-1.208 1.208 1.208 0 011.208-1.209z" fill="#E5E8F5"/><path d="M189.613 144.906h-44.711a1.208 1.208 0 100 2.416h44.711a1.208 1.208 0 100-2.416z" fill="url(#paint0_linear)"/><path d="M194.413 144.906h68.49a1.208 1.208 0 110 2.416h-68.49a1.21 1.21 0 01-1.208-1.208 1.206 1.206 0 011.208-1.208z" fill="#E5E8F5"/><path d="M251.154 150.846H144.902a1.209 1.209 0 100 2.417h106.252a1.208 1.208 0 000-2.417z" fill="url(#paint1_linear)"/><path d="M161.36 156.787h-16.458a1.208 1.208 0 100 2.417h16.458a1.209 1.209 0 100-2.417zm38.885 0h-32.404a1.208 1.208 0 000 2.417h32.404a1.208 1.208 0 000-2.417zm-23.22 5.302h-32.123a1.209 1.209 0 100 2.417h32.123a1.208 1.208 0 100-2.417zm39.165 0h-32.404a1.208 1.208 0 000 2.417h32.404a1.208 1.208 0 000-2.417z" fill="#B0BEC5"/><path d="M205.882 156.787h50.867a1.206 1.206 0 011.208 1.208 1.208 1.208 0 01-1.208 1.209h-50.867a1.21 1.21 0 01-.854-2.063c.226-.227.534-.354.854-.354z" fill="#E5E8F5"/><path d="M324.359 53.353h16.437a2.896 2.896 0 010 5.793h-16.437a2.896 2.896 0 010-5.793z" fill="#BBC0D6"/><path d="M162.887 55.263h3.92v7.84h-3.92v-7.84z" fill="#92AED9"/><path d="M144.929 68.673h11.898a1.21 1.21 0 110 2.417h-11.898a1.207 1.207 0 110-2.417zm18.373 0h11.899a1.209 1.209 0 010 2.417h-11.899a1.207 1.207 0 110-2.417zm20.996 0h11.899a1.209 1.209 0 010 2.417h-11.899a1.207 1.207 0 110-2.417zm2.061-15.66h126.47a3.272 3.272 0 013.269 3.269 3.269 3.269 0 01-3.269 3.268h-126.47a3.27 3.27 0 01-2.312-5.58 3.27 3.27 0 012.312-.957zm19.984 15.66h11.899a1.209 1.209 0 010 2.417h-11.899a1.207 1.207 0 110-2.417zm20.994 0h11.899a1.209 1.209 0 010 2.417h-11.899a1.207 1.207 0 110-2.417zm53.319 10.756h101.972v59.697H280.656V79.429z" fill="#E5E8F5"/><path d="M287.769 85.155h55.814a1.207 1.207 0 110 2.416h-55.814a1.21 1.21 0 110-2.416zm0 8.061h51.783a1.207 1.207 0 110 2.417h-51.783a1.21 1.21 0 110-2.417zm0 5.941h11.898a1.21 1.21 0 01.855 2.062 1.208 1.208 0 01-.855.354h-11.898a1.208 1.208 0 110-2.416zm17.394 0h30.143a1.209 1.209 0 010 2.416h-30.143a1.207 1.207 0 010-2.416zm66.971 2.963h-17.611a1.105 1.105 0 01-1.105-1.105V86.116a1.101 1.101 0 011.105-1.104h17.611a1.104 1.104 0 011.104 1.104v14.899a1.104 1.104 0 01-1.104 1.105z" fill="#fff"/><path d="M367.633 87.103l-5.077 6.826-4.196-2.961-4.942 7.59v2.369c0 .709.279 1.282.622 1.282h18.576c.344 0 .623-.574.623-1.282v-7.645l-5.606-6.178z" fill="#BBC0D6"/><path d="M287.769 114.186h59.42a1.211 1.211 0 011.209 1.208 1.21 1.21 0 01-1.209 1.208h-59.42a1.208 1.208 0 110-2.416zm0 8.061h51.783a1.209 1.209 0 110 2.416h-51.783a1.208 1.208 0 110-2.416zm-.001 5.94h11.898a1.209 1.209 0 010 2.414h-11.898a1.207 1.207 0 010-2.414zm17.395 0h30.143a1.21 1.21 0 011.208 1.208 1.206 1.206 0 01-1.208 1.208h-30.143a1.207 1.207 0 010-2.416zm66.971 2.962h-17.611c-.293 0-.574-.116-.781-.324a1.101 1.101 0 01-.324-.781v-14.898c0-.293.116-.574.324-.781.207-.208.488-.324.781-.324h17.611a1.101 1.101 0 011.104 1.105v14.898a1.104 1.104 0 01-1.104 1.105z" fill="#fff"/><path d="M367.633 116.134l-5.077 6.825-4.196-2.961-4.942 7.589v2.37c0 .708.279 1.282.622 1.282h18.576c.344 0 .623-.574.623-1.282v-7.645l-5.606-6.178z" fill="#BBC0D6"/><path d="M26.72 120.156h218.51a6.037 6.037 0 016.036 6.036v125.126a6.036 6.036 0 01-6.036 6.036H26.72a6.036 6.036 0 01-6.036-6.036V126.192a6.035 6.035 0 016.036-6.036z" fill="#E5E8F5"/><path d="M28.78 120.155h218.51a6.036 6.036 0 016.036 6.036v123.063a6.036 6.036 0 01-6.036 6.036H28.78a6.036 6.036 0 01-6.036-6.036V126.191a6.036 6.036 0 016.036-6.036z" fill="#fff"/><path d="M22.793 134.585l-.049-8.778c0-3.109 2.64-5.652 5.873-5.652h218.836c3.23 0 5.873 2.543 5.873 5.652l-.083 8.778H22.793z" fill="#56557E"/><path d="M33.43 130.026a2.656 2.656 0 100-5.312 2.656 2.656 0 000 5.312z" fill="#FA538D"/><path d="M43.877 130.026a2.656 2.656 0 100-5.312 2.656 2.656 0 000 5.312z" fill="#FAB353"/><path d="M54.326 130.026a2.656 2.656 0 100-5.312 2.656 2.656 0 000 5.312z" fill="#9DC925"/><path d="M211.185 165.492h28.294a1.774 1.774 0 011.773 1.773V191.2c0 .47-.187.921-.519 1.254a1.777 1.777 0 01-1.254.519h-28.294c-.47 0-.921-.187-1.254-.519a1.777 1.777 0 01-.519-1.254v-23.935a1.773 1.773 0 011.773-1.773z" fill="#E5E8F5"/><path d="M232.245 168.855l-8.154 10.964-6.741-4.757-7.938 12.192v3.806c0 1.138.448 2.061 1 2.061h29.84c.552 0 1-.923 1-2.061v-12.28l-9.007-9.925z" fill="#BBC0D6"/><path d="M46.924 168.204h38.728a2.432 2.432 0 012.43 2.429v32.765a2.427 2.427 0 01-2.43 2.429H46.924a2.428 2.428 0 01-2.43-2.429v-32.765a2.431 2.431 0 012.43-2.429z" fill="#E5E8F5"/><path d="M45.252 215.863h154.766v15.409H45.252v-15.409z" fill="#9499EA"/><path d="M75.754 172.806L64.59 187.815l-9.228-6.512-10.868 16.691v5.211c0 1.559.613 2.822 1.37 2.822h40.85c.754 0 1.369-1.263 1.369-2.822v-16.812l-12.33-13.587z" fill="#BBC0D6"/><path d="M94.987 142.6h62.956a2.36 2.36 0 011.651.703 2.36 2.36 0 01-1.651 4.022H94.987a2.364 2.364 0 010-4.725zm-23.363 9.452h109.68a2.358 2.358 0 012.21 1.451c.12.289.183.599.183.911a2.37 2.37 0 01-1.48 2.192c-.29.117-.6.175-.913.171H71.624a2.364 2.364 0 01-1.651-4.023 2.364 2.364 0 011.65-.702zm23.611 16.113h101.48a2.358 2.358 0 012.21 1.452 2.353 2.353 0 010 1.822 2.37 2.37 0 01-1.297 1.28c-.29.117-.6.175-.913.171H95.235a2.364 2.364 0 01-2.333-2.362 2.361 2.361 0 012.333-2.363zm0 9.012h101.48a2.358 2.358 0 012.21 1.451 2.36 2.36 0 01-1.297 3.103c-.29.117-.6.175-.913.171H95.235a2.364 2.364 0 01-1.651-4.023 2.364 2.364 0 011.651-.702zm0 9.398h101.48a2.358 2.358 0 012.21 1.451 2.36 2.36 0 01-1.297 3.103c-.29.117-.6.175-.913.171H95.235a2.364 2.364 0 01-1.651-4.023 2.364 2.364 0 011.651-.702zm0 8.482h101.041a2.364 2.364 0 01.914 4.554c-.29.117-.601.175-.914.171H95.236a2.36 2.36 0 01-2.334-2.362 2.361 2.361 0 012.333-2.363zm0 9.085h74.388a2.362 2.362 0 010 4.725H95.235a2.364 2.364 0 01-2.333-2.362 2.361 2.361 0 012.333-2.363zm116.833-7.638h26.773a1.567 1.567 0 011.57 1.57 1.57 1.57 0 01-1.57 1.569h-26.773a1.569 1.569 0 110-3.139zm0 5.364h21.02a1.57 1.57 0 110 3.139h-21.02c-.417 0-.816-.165-1.11-.46a1.566 1.566 0 010-2.22 1.569 1.569 0 011.11-.459z" fill="#E5E8F5"/><path d="M239.477 209.642h-28.29c-.98 0-1.775.795-1.775 1.775v23.933c0 .98.795 1.774 1.775 1.774h28.29c.98 0 1.775-.794 1.775-1.774v-23.933c0-.98-.795-1.775-1.775-1.775z" fill="#E0F5FF"/><path d="M232.245 213.004l-8.154 10.964-6.741-4.756-7.938 12.191v3.807c0 1.139.448 2.062 1 2.062h29.84c.552 0 1-.923 1-2.062v-12.281l-9.007-9.925z" fill="url(#paint2_linear)"/><path d="M238.841 240.655h-26.773a1.57 1.57 0 000 3.139h26.773a1.57 1.57 0 100-3.139zm-5.753 5.362h-21.02a1.57 1.57 0 100 3.139h21.02a1.57 1.57 0 000-3.139z" fill="#E0F5FF"/><path d="M103.546 221.51a.302.302 0 01-.104.128.272.272 0 01-.142.037.348.348 0 01-.184-.063 5.96 5.96 0 00-.242-.142 2.005 2.005 0 00-.326-.141 1.367 1.367 0 00-.44-.063 1.289 1.289 0 00-.4.055.832.832 0 00-.287.154.613.613 0 00-.174.235.765.765 0 00-.057.302.521.521 0 00.117.349c.086.099.191.18.309.237.141.071.288.13.438.177.165.051.332.107.502.166.172.058.339.127.503.204.16.076.308.175.438.295.132.124.237.272.31.437.083.198.123.412.117.627.001.257-.045.512-.138.752-.089.23-.226.438-.401.611a1.897 1.897 0 01-.646.409 2.365 2.365 0 01-.873.151 2.919 2.919 0 01-1.085-.213 2.67 2.67 0 01-.471-.246 2.275 2.275 0 01-.392-.32l.32-.528a.43.43 0 01.108-.096.282.282 0 01.142-.038c.08.005.158.034.221.084.079.056.173.118.281.187.12.074.248.137.381.186.169.06.348.088.528.084.262.017.522-.063.73-.223a.804.804 0 00.258-.642.594.594 0 00-.117-.381.954.954 0 00-.309-.248 2.36 2.36 0 00-.439-.17 14.636 14.636 0 01-.5-.151 4.22 4.22 0 01-.5-.197 1.625 1.625 0 01-.439-.299 1.375 1.375 0 01-.309-.461 1.745 1.745 0 01-.117-.682 1.638 1.638 0 01.506-1.176c.176-.166.383-.295.609-.381.263-.1.543-.149.824-.144.329-.003.657.052.967.164.28.1.537.256.755.459l-.272.515zm2.361 2.762v2.085h-1.102v-5.926h1.93c.348-.006.695.041 1.028.14.264.079.508.211.717.389.186.163.329.368.418.599.183.501.18 1.051-.008 1.551a1.631 1.631 0 01-.431.616 1.997 1.997 0 01-.716.402c-.327.101-.667.15-1.009.144h-.827zm0-.861h.828c.179.003.357-.022.528-.076a.897.897 0 00.594-.561 1.322 1.322 0 000-.884.862.862 0 00-.221-.328.994.994 0 00-.373-.207 1.785 1.785 0 00-.528-.072h-.828v2.128zm8.557 2.948h-.852a.382.382 0 01-.236-.071.414.414 0 01-.133-.179l-.443-1.207h-2.455l-.442 1.207a.393.393 0 01-.129.172.367.367 0 01-.236.078h-.856l2.328-5.926h1.126l2.328 5.926zm-3.837-2.238h1.889l-.721-1.971a9.018 9.018 0 01-.226-.697 8.787 8.787 0 01-.221.705l-.721 1.963zm8.313.84a.206.206 0 01.156.07l.434.471a2.37 2.37 0 01-.887.684c-.4.169-.831.25-1.265.238a2.994 2.994 0 01-1.186-.226 2.625 2.625 0 01-.9-.627 2.737 2.737 0 01-.571-.959 3.58 3.58 0 01-.199-1.218c-.005-.418.07-.833.221-1.223a2.76 2.76 0 011.585-1.582 3.298 3.298 0 011.235-.223 2.92 2.92 0 011.154.211c.315.131.602.321.846.559l-.369.513a.339.339 0 01-.083.086.237.237 0 01-.142.037.315.315 0 01-.192-.075 2.049 2.049 0 00-.634-.32 2.214 2.214 0 00-1.358.072 1.701 1.701 0 00-.603.415 1.928 1.928 0 00-.394.658c-.098.28-.146.574-.141.871a2.61 2.61 0 00.141.889c.084.242.214.464.383.656.159.175.353.314.57.408.223.095.463.143.705.141.136.001.273-.007.408-.025a1.55 1.55 0 00.627-.215c.097-.06.189-.129.273-.207a.401.401 0 01.086-.06.229.229 0 01.1-.019zm5.161-4.528v.876h-2.627v1.644h2.07v.848h-2.07v1.676h2.627v.881h-3.738v-5.925h3.738zm6.273 0v.876h-2.627v1.755h2.218v.881h-2.218v2.415h-1.11v-5.927h3.737zm6.549 2.963c.005.412-.069.822-.217 1.207a2.854 2.854 0 01-.61.961 2.78 2.78 0 01-.947.633 3.42 3.42 0 01-2.452 0 2.772 2.772 0 01-.951-.633 2.862 2.862 0 01-.613-.961 3.472 3.472 0 010-2.415 2.775 2.775 0 011.564-1.594c.39-.155.807-.232 1.227-.227.42-.005.836.073 1.226.23a2.773 2.773 0 011.557 1.592c.147.385.221.794.216 1.207zm-1.131 0a2.79 2.79 0 00-.129-.875 1.858 1.858 0 00-.371-.658 1.604 1.604 0 00-.588-.415 2.206 2.206 0 00-1.564 0 1.618 1.618 0 00-.592.415 1.844 1.844 0 00-.375.658 2.982 2.982 0 000 1.75c.078.242.206.466.375.656.164.18.366.32.592.411.504.192 1.06.192 1.564 0a1.61 1.61 0 00.588-.411c.168-.191.294-.414.371-.656.09-.283.134-.578.129-.875zm3.141.646v2.316h-1.103v-5.927h1.807c.351-.006.701.036 1.04.125.257.068.498.188.709.351.178.143.318.328.405.539.157.402.171.845.041 1.256a1.649 1.649 0 01-.664.865 2.127 2.127 0 01-.556.262c.145.084.268.2.361.34l1.484 2.188h-.992a.493.493 0 01-.244-.057.494.494 0 01-.17-.164l-1.245-1.898a.445.445 0 00-.154-.151.542.542 0 00-.248-.045h-.471zm0-.792h.688a1.72 1.72 0 00.543-.078c.141-.044.271-.117.381-.215a.852.852 0 00.223-.326c.051-.132.076-.273.074-.415a.83.83 0 00-.067-.381.835.835 0 00-.23-.312 1.427 1.427 0 00-.908-.242h-.705l.001 1.969zm6.949.792v2.316h-1.103v-5.927h1.808c.35-.006.7.036 1.039.125.257.068.499.188.709.351.178.143.318.328.405.539.157.402.172.845.042 1.256a1.649 1.649 0 01-.664.865 2.136 2.136 0 01-.555.262c.144.084.268.2.36.34l1.484 2.188h-.992a.487.487 0 01-.243-.057.497.497 0 01-.171-.164l-1.245-1.898a.434.434 0 00-.153-.151.542.542 0 00-.248-.045h-.473zm0-.792h.688a1.72 1.72 0 00.543-.078c.141-.044.271-.117.381-.215a.866.866 0 00.224-.326c.05-.132.075-.273.073-.415a.842.842 0 00-.297-.693 1.424 1.424 0 00-.907-.242h-.705v1.969zm7.969-2.817v.876h-2.627v1.644h2.069v.848h-2.069v1.676h2.627v.881h-3.738v-5.925h3.738zm1.655.006a.275.275 0 01.163.078c.03.029.057.059.083.092l3.11 3.963a5.837 5.837 0 01-.028-.537v-3.602h.971v5.926h-.57a.52.52 0 01-.217-.041.479.479 0 01-.168-.148l-3.099-3.947a4.716 4.716 0 01.025.496v3.639h-.971v-5.925h.577c.041 0 .083.002.124.006zm9.672-.006v.905h-1.781v5.02h-1.102v-5.02h-1.791v-.905h4.674z" fill="#fff"/><path d="M46.726 236.727h44.6a1.885 1.885 0 011.887 1.887 1.891 1.891 0 01-1.165 1.744 1.885 1.885 0 01-.723.144H46.726a1.885 1.885 0 01-1.886-1.889 1.884 1.884 0 011.886-1.886zm.001 7.199h44.6a1.88 1.88 0 011.744 1.165 1.885 1.885 0 01-1.022 2.466 1.885 1.885 0 01-.723.144H46.727a1.888 1.888 0 010-3.775zm53.276-7.199h44.599a1.883 1.883 0 011.743 1.165 1.887 1.887 0 01-1.743 2.61h-44.599a1.888 1.888 0 110-3.775zm0 7.199h44.599a1.876 1.876 0 011.334.553 1.883 1.883 0 010 2.669 1.89 1.89 0 01-1.334.553h-44.599a1.888 1.888 0 110-3.775zm52.572-7.199h44.599a1.883 1.883 0 011.335.553 1.89 1.89 0 010 2.669 1.904 1.904 0 01-1.335.553h-44.599a1.888 1.888 0 110-3.775zm0 7.199h44.599a1.891 1.891 0 011.744 2.609 1.904 1.904 0 01-.409.613 1.904 1.904 0 01-1.335.553h-44.599a1.888 1.888 0 110-3.775z" fill="#E5E8F5"/><path d="M211.569 147.616c-.108 4.937-4.046 9.057-9.058 9.057a9.054 9.054 0 01-9.057-9.057 9.058 9.058 0 019.057-9.058c5.012 0 8.95 4.122 9.058 9.058a.457.457 0 00.915 0 9.977 9.977 0 00-6.574-9.376 9.977 9.977 0 00-11.056 2.987 9.978 9.978 0 00-.958 11.411 9.975 9.975 0 0010.402 4.789c4.758-.853 8.082-5.055 8.186-9.811a.457.457 0 00-.915 0zm-14.097-16.442a12.357 12.357 0 00-11.292 11.397c-.099 1.174 1.733 1.169 1.831 0a10.476 10.476 0 019.461-9.566c1.164-.109 1.175-1.941 0-1.831zm-11.305 21.258a11.88 11.88 0 0011.184 11.092.932.932 0 00.916-.916l.008-.249c.038-1.179-1.795-1.177-1.831 0l-.008.249.915-.916a9.997 9.997 0 01-9.353-9.258c-.086-1.17-1.918-1.178-1.831 0v-.002zm32.335-10.227a12.148 12.148 0 00-11.426-11.062c-1.176-.075-1.172 1.756 0 1.832a10.265 10.265 0 019.594 9.23c.115 1.162 1.948 1.174 1.831 0h.001zm-11.849 20.142l-.007.23a.92.92 0 00.916.915 11.985 11.985 0 0010.978-11.332c.069-1.177-1.762-1.174-1.831 0a10.107 10.107 0 01-9.148 9.501l.916.916.007-.23c.038-1.179-1.795-1.178-1.831 0z" fill="#FF6369"/><path d="M202.051 126.74v15.392a.457.457 0 00.915 0V126.74a.457.457 0 00-.915 0zm0 26.358v15.391a.457.457 0 00.915 0v-15.391a.46.46 0 00-.457-.445.46.46 0 00-.458.445zm22.071-5.939H208.73a.458.458 0 000 .916h15.392a.458.458 0 000-.916zm-27.832 0h-15.392a.458.458 0 000 .916h15.392a.458.458 0 000-.916zm6.22 2.728a2.272 2.272 0 10.001-4.543 2.272 2.272 0 00-.001 4.543z" fill="#FF6369"/><path d="M368.04 143.564l-24.239-14.061-2.539 27.812 8.201-4.069 3.241 5.491 11.072-5.938-3.241-5.491 7.505-3.744z" fill="#9499EA"/><path d="M368.048 143.579l-24.239-14.061 14.822 26.06 5.153-2.764-3.241-5.491 7.505-3.744z" fill="#6169E8"/><path d="M248.943 258.598c15.046 0 27.243-12.198 27.243-27.244s-12.197-27.243-27.243-27.243-27.244 12.197-27.244 27.243 12.198 27.244 27.244 27.244z" fill="#FFC200"/><path d="M248.942 255.447c13.079 0 23.682-10.603 23.682-23.682 0-13.08-10.603-23.682-23.682-23.682-13.079 0-23.682 10.602-23.682 23.682 0 13.079 10.603 23.682 23.682 23.682z" fill="#F57C00"/><path d="M248.944 254.263c12.652 0 22.908-10.256 22.908-22.908 0-12.652-10.256-22.909-22.908-22.909-12.652 0-22.909 10.257-22.909 22.909s10.257 22.908 22.909 22.908z" fill="#F8A441"/><path d="M244.663 241.975c2.039.509 4.177.464 6.192-.132 3.253-.992 4.629-3.29 3.87-5.775-.703-2.301-2.42-3.217-6.136-3.481-4.455-.198-7.576-1.522-8.636-4.994-1.171-3.837 1.138-7.658 5.925-9.12 2.522-.769 4.527-.743 5.814-.456l-.085 2.862a10.254 10.254 0 00-5.035.259c-3.362 1.026-4.028 3.427-3.515 5.107.703 2.302 2.547 2.979 6.348 3.257 4.657.336 7.39 1.697 8.494 5.319 1.16 3.801-.65 7.949-6.46 9.722-2.377.725-5.183.823-6.766.348l-.01-2.916z" fill="#FFE082"/><path d="M245.558 216.343l-2.65.809 1.199 3.925 2.65-.809-1.199-3.925zm7.719 25.288l-2.65.809 1.199 3.925 2.65-.809-1.199-3.925z" fill="#FFE082"/><path d="M220.634 260.395c15.046 0 27.243-12.198 27.243-27.244s-12.197-27.243-27.243-27.243-27.243 12.197-27.243 27.243 12.197 27.244 27.243 27.244z" fill="#FFC200"/><path d="M220.633 257.244c13.08 0 23.683-10.603 23.683-23.682 0-13.08-10.603-23.683-23.683-23.683-13.079 0-23.682 10.603-23.682 23.683 0 13.079 10.603 23.682 23.682 23.682z" fill="#F57C00"/><path d="M220.635 256.06c12.652 0 22.908-10.257 22.908-22.909s-10.256-22.908-22.908-22.908c-12.652 0-22.908 10.256-22.908 22.908 0 12.652 10.256 22.909 22.908 22.909z" fill="#F8A441"/><path d="M209.102 231.828a11.783 11.783 0 001.635 5.973c1.754 2.914 4.318 3.69 6.544 2.349 2.062-1.241 2.531-3.131 1.883-6.798-.892-4.369-.366-7.719 2.743-9.591 3.437-2.07 7.706-.76 10.287 3.528 1.361 2.259 1.822 4.211 1.857 5.528l-2.797.614a10.247 10.247 0 00-1.476-4.821c-1.813-3.011-4.303-3.072-5.809-2.166-2.063 1.242-2.269 3.195-1.615 6.948.807 4.599.151 7.583-3.091 9.533-3.404 2.05-7.868 1.304-11.002-3.901-1.282-2.128-2.059-4.826-1.982-6.478l2.823-.718z" fill="#FFE082"/><path d="M234.184 226.46l-1.43-2.375-3.519 2.119 1.43 2.375 3.519-2.119zm-22.652 13.639l-1.43-2.375-3.519 2.119 1.43 2.375 3.519-2.119z" fill="#FFE082"/><path d="M359.446 267.208c-21.685 0-30.152-6.448-30.152-9.406 0 0-.894-5.379 1.689-5.379 0 0 16.758 5.526 27.887 5.526 16.886 0 28.886-5.526 28.886-5.526 2.583 0 1.704 2.421 1.704 5.379 0 2.958-8.407 9.406-30.014 9.406z" fill="#FFD529"/><path d="M389.657 254.183c0-4.43-13.514-8.022-30.184-8.022-16.671 0-30.184 3.592-30.184 8.022 0 4.431 13.522 8.954 30.192 8.954s30.176-4.523 30.176-8.954z" fill="#FFC200"/><path d="M360.997 262.255c-21.686 0-30.152-6.448-30.152-9.406 0 0-.894-5.379 1.689-5.379 0 0 16.758 5.525 27.887 5.525 16.886 0 28.886-5.525 28.886-5.525 2.583 0 1.704 2.421 1.704 5.379-.002 2.958-8.409 9.406-30.014 9.406z" fill="#FFD529"/><path d="M391.208 249.231c0-4.43-13.514-8.022-30.184-8.022s-30.184 3.592-30.184 8.022c0 4.431 13.522 8.955 30.192 8.955s30.176-4.524 30.176-8.955z" fill="#FFC200"/><path d="M357.128 256.532c-21.686 0-30.152-6.448-30.152-9.406 0 0-.894-5.379 1.689-5.379 0 0 16.758 5.525 27.887 5.525 16.886 0 28.886-5.525 28.886-5.525 2.583 0 1.704 2.42 1.704 5.379 0 2.958-8.407 9.406-30.014 9.406z" fill="#FFD529"/><path d="M387.338 243.508c0-4.43-13.513-8.022-30.184-8.022-16.67 0-30.183 3.592-30.183 8.022s13.521 8.954 30.19 8.954c16.668 0 30.177-4.523 30.177-8.954z" fill="#FFC200"/><path d="M356.528 249.032c-21.686 0-30.152-6.448-30.152-9.406 0 0-.894-5.379 1.689-5.379 0 0 16.758 5.525 27.887 5.525 16.886 0 28.886-5.525 28.886-5.525 2.583 0 1.704 2.42 1.704 5.379 0 2.958-8.408 9.406-30.014 9.406z" fill="#FFD529"/><path d="M386.739 236.008c0-4.431-13.514-8.022-30.184-8.022-16.669 0-30.184 3.591-30.184 8.022s13.522 8.954 30.192 8.954c16.671 0 30.176-4.524 30.176-8.954z" fill="#FFC200"/><path d="M358.075 244.08c-21.685 0-30.152-6.448-30.152-9.406 0 0-.894-5.379 1.689-5.379 0 0 16.758 5.525 27.887 5.525 16.886 0 28.886-5.525 28.886-5.525 2.583 0 1.704 2.421 1.704 5.379 0 2.958-8.407 9.406-30.014 9.406z" fill="#FFD529"/><path d="M388.286 231.056c0-4.431-13.514-8.022-30.184-8.022-16.671 0-30.184 3.591-30.184 8.022s13.522 8.954 30.192 8.954 30.176-4.524 30.176-8.954z" fill="#FFC200"/><path d="M354.206 238.356c-21.685 0-30.152-6.448-30.152-9.406 0 0-.894-5.379 1.689-5.379 0 0 16.758 5.525 27.887 5.525 16.886 0 28.886-5.525 28.886-5.525 2.583 0 1.704 2.421 1.704 5.379 0 2.958-8.408 9.406-30.014 9.406z" fill="#FFD529"/><path d="M384.415 225.332c0-4.43-13.514-8.022-30.184-8.022s-30.184 3.592-30.184 8.022c0 4.431 13.522 8.955 30.192 8.955s30.176-4.524 30.176-8.955z" fill="#FFC200"/><path d="M381.804 225.063c0-3.605-12.02-6.527-26.847-6.527-14.826 0-26.846 2.922-26.846 6.527 0 3.604 12.027 7.285 26.854 7.285 14.826 0 26.839-3.681 26.839-7.285z" fill="#F57C00"/><path d="M381.18 225.363c0-3.456-11.595-6.258-25.898-6.258-14.303 0-25.897 2.802-25.897 6.258s11.602 6.985 25.905 6.985 25.89-3.529 25.89-6.985z" fill="#FFA000"/><path d="M362.63 227.845c1.086-.501 2.124-1.264 2.452-2.111.484-1.257-.946-2.09-3.422-2.233-2.295-.133-3.802.299-5.572 1.511-2.018 1.471-4.464 2.312-7.925 2.113-3.824-.222-6.193-1.615-5.48-3.465a4.016 4.016 0 012.012-2.035l2.456.49c-.557.286-1.531.879-1.862 1.741-.5 1.299 1.313 1.909 2.988 2.006 2.295.133 3.647-.381 5.464-1.618 2.223-1.518 4.541-2.221 8.149-2.012 3.788.219 6.647 1.497 5.783 3.742-.353.919-1.431 1.881-2.501 2.339l-2.542-.468z" fill="#FFE082"/><path d="M344.609 223.651l-.394 1.025-3.914-.227.394-1.024 3.914.226zm25.205 1.458l-.394 1.025-3.914-.227.394-1.024 3.914.226z" fill="#FFE082"/><defs><linearGradient id="paint0_linear" x1="143.693" y1="146.114" x2="190.822" y2="146.114" gradientUnits="userSpaceOnUse"><stop stop-color="#97ABFF"/><stop offset=".138" stop-color="#8DA2F7"/><stop offset=".365" stop-color="#748CE4"/><stop offset=".654" stop-color="#4B68C4"/><stop offset=".99" stop-color="#133698"/><stop offset="1" stop-color="#123597"/></linearGradient><linearGradient id="paint1_linear" x1="211.937" y1="176.107" x2="211.924" y2="127.994" gradientUnits="userSpaceOnUse"><stop stop-color="#CCE0F4"/><stop offset=".12" stop-color="#B7D9D4"/><stop offset=".262" stop-color="#A3D2B7"/><stop offset=".413" stop-color="#94CDA0"/><stop offset=".576" stop-color="#89C990"/><stop offset=".758" stop-color="#83C787"/><stop offset="1" stop-color="#81C784"/></linearGradient><linearGradient id="paint2_linear" x1="209.412" y1="225.138" x2="241.252" y2="225.138" gradientUnits="userSpaceOnUse"><stop stop-color="#3C8CE7"/><stop offset=".178" stop-color="#3695E9"/><stop offset=".472" stop-color="#26AEEF"/><stop offset=".844" stop-color="#0CD6FA"/><stop offset="1" stop-color="#00EAFF"/></linearGradient></defs></svg>