<svg width="27" height="22" viewBox="0 0 27 22" fill="none" xmlns="http://www.w3.org/2000/svg">
<g clip-path="url(#clip0)" filter="url(#filter0_d)">
<path d="M22.2594 1.14787C21.5736 0.332611 20.3073 6.10352e-05 17.8891 6.10352e-05H9.11076C6.63714 6.10352e-05 5.34943 0.354062 4.66616 1.22202C4 2.06829 4 3.3152 4 5.04095V8.33023C4 11.6736 4.7904 13.3711 9.11076 13.3711H17.8891C19.9862 13.3711 21.1483 13.0777 21.9001 12.3582C22.6711 11.6204 23 10.4158 23 8.33023V5.04095C23 3.221 22.9485 1.96674 22.2594 1.14787ZM16.1981 7.13971L12.2119 9.22295C12.1227 9.26953 12.0253 9.29264 11.928 9.29264C11.8178 9.29264 11.7078 9.26297 11.6104 9.20401C11.427 9.0929 11.3151 8.89414 11.3151 8.67975V4.52662C11.3151 4.3126 11.4267 4.11403 11.6097 4.00285C11.7928 3.89168 12.0205 3.88408 12.2105 3.98275L16.1967 6.05257C16.3995 6.15787 16.5268 6.36723 16.5271 6.59565C16.5274 6.82426 16.4006 7.03392 16.1981 7.13971Z" fill="#333333"/>
</g>
<defs>
<filter id="filter0_d" x="0" y="6.10352e-05" width="27" height="22" filterUnits="userSpaceOnUse" color-interpolation-filters="sRGB">
<feFlood flood-opacity="0" result="BackgroundImageFix"/>
<feColorMatrix in="SourceAlpha" type="matrix" values="0 0 0 0 0 0 0 0 0 0 0 0 0 0 0 0 0 0 127 0"/>
<feOffset dy="4"/>
<feGaussianBlur stdDeviation="2"/>
<feColorMatrix type="matrix" values="0 0 0 0 0 0 0 0 0 0 0 0 0 0 0 0 0 0 0.25 0"/>
<feBlend mode="normal" in2="BackgroundImageFix" result="effect1_dropShadow"/>
<feBlend mode="normal" in="SourceGraphic" in2="effect1_dropShadow" result="shape"/>
</filter>
<clipPath id="clip0">
<rect width="19" height="14" fill="white" transform="translate(4)"/>
</clipPath>
</defs>
</svg>
