<svg width="19" height="15" viewBox="0 0 19 15" fill="none" xmlns="http://www.w3.org/2000/svg">
<g clip-path="url(#clip0)">
<path d="M18.7314 1.73615C18.0233 2.04074 17.315 2.23096 16.6072 2.30736C17.4066 1.82768 17.9474 1.15001 18.2292 0.274408C17.4978 0.70833 16.7175 1.0052 15.8877 1.16517C15.1566 0.388539 14.2583 6.10352e-05 13.1921 6.10352e-05C12.1719 6.10352e-05 11.3021 0.359776 10.5822 1.07936C9.8628 1.79891 9.50304 2.66876 9.50304 3.68902C9.50304 3.96308 9.53345 4.24491 9.59441 4.53422C8.08675 4.45809 6.67245 4.0793 5.35129 3.39783C4.0302 2.71628 2.90901 1.80828 1.98773 0.673807C1.65269 1.24474 1.48512 1.8654 1.48512 2.53543C1.48512 3.16741 1.63357 3.75378 1.93068 4.2944C2.22759 4.83493 2.62743 5.27269 3.12999 5.60776C2.53598 5.58488 1.98016 5.42875 1.46248 5.1394V5.18508C1.46248 6.07601 1.7423 6.85821 2.30188 7.53227C2.86153 8.20626 3.5678 8.6305 4.42052 8.80571C4.10069 8.88936 3.77702 8.93125 3.44966 8.93125C3.23644 8.93125 3.00418 8.91224 2.75296 8.87444C2.98898 9.61287 3.42302 10.2199 4.05492 10.6961C4.68694 11.1719 5.40269 11.4172 6.20221 11.4328C4.86216 12.4834 3.33553 13.0087 1.62233 13.0087C1.29486 13.0087 0.997991 12.9938 0.731445 12.9632C2.44469 14.0671 4.33299 14.6191 6.39647 14.6191C7.70611 14.6191 8.93583 14.4118 10.0852 13.9967C11.2352 13.5819 12.2173 13.026 13.0321 12.3291C13.8467 11.6325 14.5492 10.8311 15.1393 9.92498C15.7293 9.01886 16.1689 8.07288 16.4585 7.08687C16.7477 6.10065 16.8924 5.11292 16.8924 4.1229C16.8924 3.90968 16.8886 3.74986 16.8809 3.64321C17.6045 3.11808 18.2212 2.48218 18.7314 1.73615Z" fill="#333333"/>
</g>
<defs>
<clipPath id="clip0">
<rect width="19" height="15" fill="white"/>
</clipPath>
</defs>
</svg>
