<svg width="504" height="307" fill="none" xmlns="http://www.w3.org/2000/svg"><path d="M2 224c11.201-21.958 80.171-72.427 90.5-98.5 16.28-41.093 11.22-101.63 67.642-116.43C195.398-.174 258.106-8.722 295.501 21.5c28.458 23 131.803-30.43 180.474 40.594 16.539 24.137-21.073 35.152 17.881 102.159C532.002 229.872 454.359 341.615 295.501 295c-48.679-14.284-313.297 33.118-293.5-71z" fill="#6289FF" fill-opacity=".1"/><path d="M163.172 160.963a17.526 17.526 0 0113.976-8.568 17.529 17.529 0 0114.947 6.729c7.081 9.094 3.238 23.035-7.572 27.115a17.763 17.763 0 01-19.273-4.604c-1.011-1.086-2.633.542-1.624 1.624a19.802 19.802 0 0017.327 6.248 19.817 19.817 0 008.267-36.124 19.818 19.818 0 00-8.925-3.213c-7.683-.833-15.154 3.072-19.125 9.633-.77 1.269 1.219 2.429 1.987 1.16h.015z" fill="#6169E8"/><path d="M178.709 185.112c8.413 0 15.234-6.82 15.234-15.234 0-8.413-6.821-15.234-15.234-15.234-8.414 0-15.234 6.821-15.234 15.234 0 8.414 6.82 15.234 15.234 15.234z" fill="#9499EA"/><path d="M171.715 170.795v2.188h-1.156v-6.212h2.022c.365-.008.729.041 1.079.145.276.082.533.22.753.407.193.171.343.387.436.628a2.341 2.341 0 010 1.625 1.706 1.706 0 01-.454.646 2.033 2.033 0 01-.75.421 3.369 3.369 0 01-1.055.152h-.875zm0-.89h.869c.188.003.375-.024.554-.08.146-.046.28-.124.392-.228a.925.925 0 00.231-.359c.053-.152.079-.313.077-.475a1.215 1.215 0 00-.077-.45.917.917 0 00-.231-.344 1.079 1.079 0 00-.392-.22 1.889 1.889 0 00-.554-.074h-.869v2.23zm9.418 3.078h-1.166v-2.716h-2.911v2.716h-1.165v-6.212h1.165v2.668h2.911v-2.668h1.166v6.212zm2.447-2.189v2.189h-1.156v-6.212h2.022c.365-.008.729.041 1.079.145.276.082.531.221.75.406.195.171.346.387.439.629a2.319 2.319 0 010 1.625 1.686 1.686 0 01-.45.646 2.074 2.074 0 01-.751.421 3.353 3.353 0 01-1.058.151h-.875zm0-.889h.866c.188.003.375-.024.554-.08a.993.993 0 00.392-.228.971.971 0 00.234-.359 1.446 1.446 0 000-.925.886.886 0 00-.234-.344 1.043 1.043 0 00-.392-.22 1.824 1.824 0 00-.554-.074h-.866v2.23z" fill="#fff"/><path d="M232.521 162.297l-6.594.451a44.069 44.069 0 00-7.457-18.004l4.978-4.352c.97-.97.866-2.669-.234-3.766l-7.276-7.276c-1.1-1.1-2.796-1.204-3.766-.234l-4.346 4.981a44.024 44.024 0 00-18.001-7.457l.442-6.597c0-1.373-1.272-2.5-2.829-2.5h-10.294c-1.554 0-2.826 1.127-2.826 2.5l.448 6.594a44.066 44.066 0 00-18.01 7.46l-4.343-4.981c-.973-.97-2.669-.866-3.766.234l-7.273 7.273c-1.1 1.1-1.204 2.796-.231 3.769l4.975 4.35a44.083 44.083 0 00-7.454 17.994l-6.594-.439c-1.376 0-2.5 1.272-2.5 2.829v10.291c0 1.554 1.124 2.829 2.5 2.829l6.594-.445a43.994 43.994 0 007.454 17.995l-4.981 4.37c-.973.97-.866 2.669.231 3.766l7.279 7.279c1.1 1.097 2.793 1.204 3.766.231l4.349-4.978a44.026 44.026 0 0017.995 7.457l-.439 6.594c0 1.376 1.272 2.499 2.826 2.499h10.294c1.554 0 2.826-1.123 2.826-2.499l-.445-6.594a44.057 44.057 0 0018.001-7.457l4.349 4.978c.973.973 2.669.866 3.766-.234l7.279-7.276c1.1-1.1 1.204-2.796.231-3.766l-4.981-4.37a44.042 44.042 0 007.454-17.992l6.594.442c1.376 0 2.5-1.272 2.5-2.829v-10.291c.006-1.557-1.13-2.829-2.491-2.829zm-50.23 34.726a26.75 26.75 0 01-24.717-16.515 26.754 26.754 0 0146.961-25.101 26.75 26.75 0 01-3.327 33.781 26.753 26.753 0 01-18.917 7.835z" fill="#ECEFF1"/><path d="M229.968 161.846l-6.591.448a44.062 44.062 0 00-7.457-18.001l4.976-4.352c.972-.973.868-2.669-.232-3.766l-7.279-7.279c-1.1-1.1-2.793-1.204-3.765-.231l-4.347 4.981a44.023 44.023 0 00-18.001-7.46l.442-6.594c0-1.376-1.272-2.499-2.828-2.499h-10.304c-1.553 0-2.828 1.123-2.828 2.499l.45 6.592a44.052 44.052 0 00-18.009 7.462l-4.347-4.981c-.972-.973-2.668-.866-3.765.231l-7.279 7.279c-1.097 1.1-1.204 2.793-.232 3.766l4.979 4.352a44.02 44.02 0 00-7.457 17.992l-6.594-.439c-1.373 0-2.5 1.272-2.5 2.826v10.292c0 1.553 1.127 2.825 2.5 2.825l6.594-.445a44.066 44.066 0 007.454 17.998l-4.976 4.356c-.969.969-.865 2.668.235 3.765l7.276 7.276c1.1 1.1 2.796 1.204 3.765.232l4.35-4.979a44 44 0 0017.994 7.457l-.438 6.597c0 1.373 1.272 2.5 2.828 2.5h10.292c1.553 0 2.828-1.127 2.828-2.5l-.444-6.594a44.025 44.025 0 0018-7.46l4.35 4.979c.969.972 2.668.868 3.765-.232l7.279-7.276c1.1-1.1 1.204-2.796.232-3.765l-4.976-4.356a43.981 43.981 0 007.454-17.992l6.595.442c1.375 0 2.499-1.272 2.499-2.828v-10.289c.012-1.557-1.112-2.829-2.488-2.829zm-50.227 34.726a26.759 26.759 0 01-14.863-4.508 26.757 26.757 0 01-4.054-41.162 26.744 26.744 0 0113.698-7.322 26.753 26.753 0 115.219 52.992zm6.238-105.871l-3.105.21a20.785 20.785 0 00-3.513-8.476l2.342-2.05a1.262 1.262 0 00-.106-1.778l-3.428-3.427a1.27 1.27 0 00-1.779-.11l-2.046 2.345a20.752 20.752 0 00-8.477-3.513l.208-3.105a1.265 1.265 0 00-1.332-1.186h-4.847a1.265 1.265 0 00-1.332 1.186l.211 3.105a20.756 20.756 0 00-8.48 3.516l-2.046-2.348a1.266 1.266 0 00-1.779.11l-3.418 3.421a1.263 1.263 0 00-.11 1.779l2.342 2.049a20.755 20.755 0 00-3.513 8.474l-3.105-.208a1.266 1.266 0 00-1.186 1.332v4.847a1.266 1.266 0 001.186 1.332l3.105-.21a20.73 20.73 0 003.51 8.476l-2.342 2.052a1.263 1.263 0 00.11 1.779l3.427 3.428a1.263 1.263 0 001.779.109l2.049-2.345a20.769 20.769 0 008.477 3.513l-.208 3.105a1.266 1.266 0 001.332 1.186h4.847a1.27 1.27 0 001.332-1.186l-.211-3.105a20.787 20.787 0 008.48-3.513l2.046 2.345a1.267 1.267 0 001.779-.109l3.424-3.425a1.263 1.263 0 00.11-1.779l-2.342-2.049a20.732 20.732 0 003.51-8.474l3.108.207a1.265 1.265 0 001.186-1.334v-4.844a1.265 1.265 0 00-1.195-1.332zm-23.658 16.364c-2.492 0-4.929-.739-7.001-2.123a12.606 12.606 0 01-5.358-12.936 12.596 12.596 0 019.901-9.901 12.6 12.6 0 0115.059 12.359 12.601 12.601 0 01-12.601 12.601z" fill="#8F97B9"/><path d="M210.803 67.903l-2.321-.732a16.256 16.256 0 00-.134-7.178l2.292-.825a.989.989 0 00.427-1.322l-1.515-3.478a.99.99 0 00-1.26-.593l-2.162 1.124a16.232 16.232 0 00-5.171-4.981L202 47.715a.987.987 0 00-.634-1.24l-3.529-1.384a.987.987 0 00-1.307.477l-.736 2.322a16.22 16.22 0 00-7.181.133l-.818-2.295a.995.995 0 00-1.326-.427l-3.475 1.515a.992.992 0 00-.593 1.26l1.121 2.165a16.232 16.232 0 00-4.981 5.168l-2.203-1.038a.994.994 0 00-1.239.632l-1.385 3.531a.993.993 0 00.477 1.308l2.322.735a16.198 16.198 0 00.133 7.175l-2.295.825a.992.992 0 00-.427 1.322l1.516 3.475a.986.986 0 001.263.593l2.161-1.121a16.224 16.224 0 005.168 4.981l-1.038 2.203a.991.991 0 00.632 1.237l3.531 1.387a.99.99 0 001.308-.477l.735-2.322a16.21 16.21 0 007.178-.133l.822 2.295a.99.99 0 001.325.427L202 80.928a.987.987 0 00.593-1.26l-1.121-2.167a16.162 16.162 0 004.982-5.165l2.202 1.038a.992.992 0 001.24-.632l1.384-3.531a.987.987 0 00-.477-1.308zm-21.905 5.148a9.864 9.864 0 01-6.255-8.994 9.86 9.86 0 1119.034 3.42 9.862 9.862 0 01-12.779 5.574zm38.855 14.006l-1.37-.637a10.04 10.04 0 00.498-4.424l1.483-.32a.611.611 0 00.367-.78l-.652-2.262a.61.61 0 00-.726-.463l-1.421.516a10.089 10.089 0 00-2.778-3.48l.818-1.27a.615.615 0 00-.296-.812l-2.058-1.138a.612.612 0 00-.842.186l-.64 1.37a10.084 10.084 0 00-4.427-.498l-.317-1.483a.618.618 0 00-.783-.373l-2.262.652a.615.615 0 00-.463.727l.516 1.423a10.064 10.064 0 00-3.481 2.775l-1.269-.816a.613.613 0 00-.812.297l-1.139 2.075a.617.617 0 00.187.843l1.37.637a10.04 10.04 0 00-.495 4.424l-1.483.323a.617.617 0 00-.371.78l.653 2.26a.612.612 0 00.726.462l1.421-.516a10.09 10.09 0 002.778 3.48l-.816 1.273a.615.615 0 00.297.812l2.06 1.136a.618.618 0 00.842-.187l.638-1.37c1.42.494 2.932.664 4.427.498l.32 1.483a.617.617 0 00.78.37l2.259-.652a.615.615 0 00.463-.73l-.513-1.42a10.071 10.071 0 003.478-2.778l1.272.818a.613.613 0 00.812-.296l1.136-2.058a.612.612 0 00.085-.467.604.604 0 00-.272-.39zm-13.888 1.4a6.115 6.115 0 011.256-11.228 6.114 6.114 0 11-1.256 11.228z" fill="#8F97B9"/><path d="M190.662 190.841V98.718c0-7.27-.824-13.218 10.247-13.218h157.697c10.517 0 10.247 5.948 10.247 13.219v92.122H190.662z" fill="#293666"/><path d="M169.141 261.577v-3.709h221.248v3.709a.846.846 0 01-.842.845H169.986a.85.85 0 01-.845-.845z" fill="#8F97B9"/><path d="M197.725 97.515h164.062v86.281H197.725V97.515zM297.75 260.261l-35.61.083c-3.875 0-3.78-2.586-3.78-2.586h42.782s.302 2.494-3.392 2.503zM279.757 90.52a1.642 1.642 0 011.608 1.96 1.633 1.633 0 01-1.288 1.288 1.642 1.642 0 01-1.96-1.608 1.642 1.642 0 011.64-1.64z" fill="#fff"/><path d="M390.361 257.862H169.137l21.523-67.024h178.169l21.532 67.024z" fill="#E5E8F5"/><path d="M203.736 200.792h-12.797l1.676-5.213h12.509l-1.388 5.213zm14.542 0h-12.794l1.673-5.213h12.494l-1.373 5.213zm-16.799 8.088h-12.797l1.675-5.213h12.503l-1.381 5.213zm14.543 0h-12.793l1.675-5.213h12.503l-1.385 5.213zm-16.746 8.438h-12.794l1.676-5.212h12.518l-1.4 5.212zm14.547 0h-12.794l1.673-5.212h12.503l-1.382 5.212zm-16.799 8.089h-12.797l1.675-5.213h12.503l-1.381 5.213zm14.541 0h-12.794l1.676-5.213h12.503l-1.385 5.213zm22.293-24.615h-12.797l1.675-5.213h12.503l-1.381 5.213zm14.553 0h-12.794l1.675-5.213h12.504l-1.385 5.213zm-16.81 8.088h-12.794l1.672-5.213h12.515l-1.393 5.213zm14.545 0H233.35l1.675-5.213h12.497l-1.376 5.213zm-16.746 8.438h-12.796l1.675-5.212h12.503l-1.382 5.212zm14.544 0H231.15l1.673-5.212h12.506l-1.385 5.212zm-16.799 8.089h-12.797l1.675-5.213h12.506l-1.384 5.213zm14.543 0h-12.793l1.675-5.213h12.506l-1.388 5.213zm112.417-24.615h12.794l-1.672-5.213h-12.506l1.384 5.213zm-14.546 0h12.797l-1.675-5.213h-12.503l1.381 5.213zm16.802 8.088h12.794l-1.672-5.213h-12.506l1.384 5.213zm-14.553 0h12.797l-1.675-5.213h-12.506l1.384 5.213zm16.752 8.438h12.797l-1.675-5.212h-12.506l1.384 5.212zm-14.543 0h12.794l-1.675-5.212h-12.503l1.384 5.212zm16.801 8.089h12.794l-1.672-5.213h-12.506l1.384 5.213zm-14.547 0h12.797l-1.675-5.213h-12.506l1.384 5.213zm-22.288-24.615h12.786l-1.673-5.213H322.59l1.393 5.213zm-15.779 0h12.794l-1.675-5.213h-12.501l1.382 5.213zm18.036 8.088h12.794l-1.675-5.213h-12.504l1.385 5.213zm-15.782 0h12.797l-1.675-5.213h-12.504l1.382 5.213zm17.981 8.438h12.794l-1.672-5.212h-12.506l1.384 5.212zm-15.779 0h12.794l-1.675-5.212H311.27l1.39 5.212zm18.037 8.089h12.794l-1.672-5.213h-12.507l1.385 5.213zm-15.782 0h12.797l-1.673-5.213h-12.506l1.382 5.213zm-50.195-24.615h-12.794l1.672-5.213h12.506l-1.384 5.213zm14.528 0h-12.797l1.676-5.213h12.503l-1.382 5.213zm-16.798 8.088h-12.794l1.672-5.213h12.501l-1.379 5.213zm14.547 0h-12.794l1.672-5.213h12.507l-1.385 5.213zm-16.746 8.438h-12.794l1.672-5.212h12.507l-1.385 5.212zm14.55 0h-12.797l1.675-5.212h12.504l-1.382 5.212zm18-16.526h-10.766l1.409-5.213h10.522l-1.165 5.213zm13.337 0h-10.792l1.215-5.213h8.397l1.18 5.213zm-13.565 8.088h-12.794l1.675-5.213h12.504l-1.385 5.213zm15.319 0h-13.568l1.673-5.213h10.351l1.544 5.213zm-17.52 8.438h-12.794l1.672-5.212h12.507l-1.385 5.212zm19.275 0h-17.526l2.129-5.212h14.095l1.302 5.212zm-8.942 2.876H250.19l-2.274 5.213h63.415l-1.186-5.213h-9.44zm14.01 33.235h-70.297l4.8-23.047h60.255l5.242 23.047z" fill="#BBC0D6"/><path opacity=".6" d="M218.132 102.576h29.665a.964.964 0 010 1.924h-29.665a.955.955 0 01-.715-.262.96.96 0 01.33-1.604.955.955 0 01.385-.058z" fill="#9499EA"/><path d="M202.257 102.576a.965.965 0 01.647 1.625.96.96 0 01-1.032.242.96.96 0 01-.553-.524.96.96 0 01.553-1.285.955.955 0 01.385-.058zm0 2.636a.965.965 0 01.647 1.624.96.96 0 01-1.362.038.96.96 0 010-1.4.96.96 0 01.715-.262zm0 7.403a.964.964 0 11-.002 1.928.964.964 0 01.002-1.928zm0 3.953a.965.965 0 01.647 1.624.96.96 0 01-1.362.038.958.958 0 01-.223-1.081.958.958 0 01.553-.524.972.972 0 01.385-.057zm0 3.916a.964.964 0 11-.002 1.928.964.964 0 01.002-1.928zm0 3.013a.967.967 0 01.963.964.963.963 0 11-.963-.964zm0 6.431a.965.965 0 01.647 1.625.96.96 0 01-1.032.242.96.96 0 01-.553-.524.96.96 0 01.553-1.285.973.973 0 01.385-.058zm0 3.882a.963.963 0 110 1.926.963.963 0 010-1.926zm0 3.851a.963.963 0 110 1.926.963.963 0 010-1.926zm0 2.985a.964.964 0 11-.002 1.928.964.964 0 01.002-1.928zm0 6.793a.964.964 0 11-.002 1.928.964.964 0 01.002-1.928zm0 3.078a.965.965 0 01.647 1.624.96.96 0 01-1.362.038.96.96 0 010-1.4.972.972 0 01.715-.262zm0 7.057a.96.96 0 01.91.962.964.964 0 11-.91-.962zm0 3.834a.96.96 0 01.91.962.964.964 0 11-.91-.962zm0 3.863a.967.967 0 01.963.964.961.961 0 01-.963.963.963.963 0 110-1.927zm0 3.19a.967.967 0 01.963.964.964.964 0 11-.963-.964zm0 6.283a.965.965 0 01.647 1.625.97.97 0 01-1.032.242.944.944 0 01-.33-.205.96.96 0 010-1.4.972.972 0 01.715-.262zm0 3.905a.967.967 0 01.963.964.963.963 0 11-.963-.964z" fill="#E5E8F5"/><path d="M207.226 105.425h25.319a.965.965 0 010 1.925h-25.319a.962.962 0 010-1.925z" fill="#F9B25F"/><path opacity=".6" d="M235.975 105.425h44.089a.97.97 0 01.939.581.98.98 0 010 .763.973.973 0 01-.554.523.97.97 0 01-.385.058h-44.089a.965.965 0 010-1.925zm-29.208 7.274h15.804a.95.95 0 01.715.262.973.973 0 01.302.7.96.96 0 01-.302.7.963.963 0 01-.715.262h-15.804a.97.97 0 01-.716-.262.955.955 0 01-.301-.7.96.96 0 01.301-.7.973.973 0 01.716-.262z" fill="#9499EA"/><path d="M210.121 116.668h27.118a.965.965 0 010 1.925h-27.118a.963.963 0 010-1.925z" fill="#F9B25F"/><path opacity=".6" d="M215.813 120.497H261a.961.961 0 01.963.963.963.963 0 01-.963.964h-45.187a.965.965 0 01-.681-1.645.961.961 0 01.681-.282zm52.51 0h26.703a.961.961 0 01.963.963.963.963 0 01-.963.964h-26.703a.964.964 0 010-1.927zm-56.441 3.291h55.505a.952.952 0 01.716.262.969.969 0 01.301.7.973.973 0 01-.632.904.97.97 0 01-.385.058h-55.505a.973.973 0 01-.715-.262.958.958 0 01-.302-.7.964.964 0 011.017-.962zm61.016 0h8.853a.952.952 0 01.716.262.969.969 0 01.302.7.963.963 0 01-1.018.962h-8.853a.97.97 0 01-.939-.581.98.98 0 010-.763.969.969 0 01.939-.58z" fill="#9499EA" fill-opacity=".6"/><path opacity=".6" d="M256.285 102.576h29.665a.97.97 0 01.939.581.976.976 0 010 .762.963.963 0 01-.939.581h-29.665a.961.961 0 01-.646-1.624.963.963 0 01.646-.3zm28.79 2.849h25.303a.97.97 0 01.939.581.963.963 0 01-.939 1.344h-25.315a.962.962 0 110-1.925h.012zm27.828 6.769h44.09a.964.964 0 010 1.928h-44.09a.962.962 0 01-.964-.964.962.962 0 01.964-.964zm-21.517.505h15.804a.955.955 0 01.715.262.973.973 0 01.302.7.96.96 0 01-.302.7.96.96 0 01-.715.262h-15.804a.97.97 0 01-.715-.262.96.96 0 010-1.4.96.96 0 01.715-.262z" fill="#9499EA"/><path opacity=".6" d="M287.638 124.668h40.197a.968.968 0 011.016.963.962.962 0 01-1.016.962h-40.197a.953.953 0 01-.715-.263.963.963 0 01.715-1.662zm12.79-4.171h45.187a.963.963 0 110 1.927h-45.187a.967.967 0 01-.963-.964.963.963 0 01.963-.963z" fill="#9499EA" fill-opacity=".6"/><path opacity=".6" d="M227.88 112.402h55.495a.963.963 0 110 1.927H227.88a.963.963 0 110-1.927z" fill="#6169E8"/><path d="M206.766 129.961h15.804a.967.967 0 01.964.964.964.964 0 01-.964.963h-15.804a.963.963 0 110-1.927z" fill="#E5E8F5"/><path d="M210.121 133.946h27.118a.963.963 0 110 1.927h-27.118a.966.966 0 01-.68-1.644.964.964 0 01.68-.283z" fill="#F9B25F"/><path opacity=".6" d="M215.814 137.776H261a.965.965 0 010 1.925h-45.186a.97.97 0 01-.939-.581.98.98 0 010-.762.967.967 0 01.939-.582zm-3.932 3.291h55.505a.97.97 0 01.939.582.976.976 0 010 .762.973.973 0 01-.554.523.97.97 0 01-.385.058h-55.505a.973.973 0 01-.715-.262.958.958 0 01-.223-1.081.96.96 0 01.938-.582zm6.25 6.467h29.665a.962.962 0 110 1.925h-29.665a.973.973 0 01-.715-.263.96.96 0 01.33-1.604.955.955 0 01.385-.058z" fill="#9499EA" fill-opacity=".6"/><path d="M207.226 150.384h25.319a.963.963 0 110 1.927h-25.319a.966.966 0 01-.68-1.645.972.972 0 01.68-.282z" fill="#F9B25F"/><path d="M206.767 157.642h15.804a.967.967 0 01.938.581.963.963 0 01-.938 1.343h-15.804a.952.952 0 01-.716-.262.96.96 0 010-1.4.97.97 0 01.716-.262z" fill="#E5E8F5"/><path d="M242.099 161.621h40.197a.964.964 0 01.681 1.642.963.963 0 01-.681.282h-40.197a.952.952 0 01-.716-.262.96.96 0 010-1.4.97.97 0 01.716-.262z" fill="#9499EA" fill-opacity=".6"/><path d="M210.121 161.621h27.118a.96.96 0 110 1.924h-27.118a.958.958 0 01-.646-.3.96.96 0 01.646-1.624z" fill="#F9B25F"/><path d="M215.813 165.455H261a.961.961 0 01.963.963.963.963 0 01-.963.964h-45.187a.961.961 0 01-.963-.964.963.963 0 01.963-.963zm52.51 0h26.703a.961.961 0 01.963.963.963.963 0 01-.963.964h-26.703a.964.964 0 010-1.927zm-56.441 3.282h55.504a.963.963 0 110 1.927h-55.504a.968.968 0 01-.682-.282.968.968 0 010-1.363.963.963 0 01.682-.282zm61.015 0h8.854a.963.963 0 110 1.927h-8.854a.967.967 0 01-.963-.964.963.963 0 01.963-.963z" fill="#9499EA" fill-opacity=".6"/><path d="M206.766 174.919h15.804a.967.967 0 01.964.964.964.964 0 01-.964.963h-15.804a.963.963 0 110-1.927z" fill="#E5E8F5"/><path d="M242.098 178.904h40.197a.961.961 0 01.964.963.964.964 0 01-.964.964h-40.197a.967.967 0 01-.963-.964.963.963 0 01.963-.963z" fill="#9499EA" fill-opacity=".6"/><path d="M210.12 178.904h27.118a.963.963 0 110 1.927H210.12a.964.964 0 010-1.927z" fill="#F9B25F"/><path d="M408.62 239.087a24.224 24.224 0 01-22.333-17.562 24.223 24.223 0 019.707-26.701 24.226 24.226 0 0136.432 28.131c-.637 1.871 2.325 2.668 2.965.815a27.28 27.28 0 00-25.134-36.148 27.278 27.278 0 00-1.628 54.531c1.972.089 1.969-2.965 0-3.069l-.009.003z" fill="#F8A441"/><path d="M409.578 235.894c11.611 0 21.024-9.413 21.024-21.025 0-11.612-9.413-21.025-21.024-21.025-11.612 0-21.025 9.413-21.025 21.025 0 11.612 9.413 21.025 21.025 21.025z" fill="#FFC200"/><path d="M400.774 219.143h-1.607v-3.736h-4.017v3.736h-1.607v-8.572h1.607v3.686h4.017v-3.686h1.607v8.572zm7.772-8.561v1.31h-2.58v7.25h-1.595v-7.262h-2.592v-1.31l6.767.012zm5.506 5.408l.169.412c.056-.142.112-.296.172-.421.059-.125.121-.27.19-.397l2.537-4.744a.637.637 0 01.098-.143.303.303 0 01.113-.077.73.73 0 01.139-.029h1.385v8.551h-1.402v-5.877c0-.125.008-.249.026-.374l-2.591 4.863a.647.647 0 01-.231.258.576.576 0 01-.332.092h-.22a.591.591 0 01-.332-.092.64.64 0 01-.231-.258l-2.627-4.877c.018.13.026.258.032.382.006.125 0 .24 0 .347v5.536h-1.402v-8.572h1.186c.061-.003.123-.003.184 0a.412.412 0 01.139.03.275.275 0 01.116.077.469.469 0 01.1.142l2.589 4.765c.074.139.136.27.193.406zm8.13 1.847h3.434v1.305h-5.026v-8.572h1.592v7.267z" fill="#fff"/><path d="M350.407 155.617c-3.261-8.513-1.752-18.285 4.383-25.143a24.237 24.237 0 0140.875 24.413c-3.176 8.821-11.486 15.051-20.785 15.845-1.951.166-1.968 3.235 0 3.066 9.393-.8 17.912-6.226 22.255-14.677a27.293 27.293 0 00-42.426-32.896c-8.417 7.477-11.267 19.732-7.258 30.207.7 1.824 3.665 1.032 2.965-.815h-.009z" fill="#8765DB"/><path d="M372.888 167.566c11.612 0 21.025-9.413 21.025-21.025 0-11.612-9.413-21.025-21.025-21.025-11.612 0-21.025 9.413-21.025 21.025 0 11.612 9.413 21.025 21.025 21.025z" fill="#8765DB"/><path d="M363.035 147.733c.006.441-.053.881-.178 1.305a2.662 2.662 0 01-.53.99 2.328 2.328 0 01-.89.628 3.26 3.26 0 01-1.228.22 5.447 5.447 0 01-.625-.039 6.444 6.444 0 01-.646-.121l.083-.949a.284.284 0 01.026-.115.283.283 0 01.188-.161.348.348 0 01.136-.015.968.968 0 01.261.042c.336.069.684.05 1.01-.056.169-.059.319-.162.436-.297a1.44 1.44 0 00.264-.554c.065-.271.095-.549.089-.828v-5.562h1.595l.009 5.512zm8.961 3.045h-1.233a.521.521 0 01-.341-.104.588.588 0 01-.193-.258l-.64-1.749h-3.558l-.641 1.749c-.035.1-.1.187-.187.249a.508.508 0 01-.341.113h-1.239l3.368-8.572h1.631l3.374 8.572zm-5.55-3.235h2.733l-1.043-2.852c-.048-.128-.098-.276-.158-.448a10.157 10.157 0 01-.168-.56c-.054.201-.11.388-.164.563a5.088 5.088 0 01-.157.457l-1.043 2.84zm4.589-5.337h1.287c.121-.006.24.03.338.101a.647.647 0 01.196.261l2.016 5.23c.068.169.13.356.193.558.062.201.118.418.174.646.077-.41.19-.813.338-1.204l2.011-5.23a.594.594 0 01.189-.249.515.515 0 01.339-.113h1.283l-3.46 8.572h-1.441l-3.463-8.572zm15.795 8.572h-1.233a.521.521 0 01-.341-.104.588.588 0 01-.193-.258l-.64-1.749h-3.558l-.641 1.749a.55.55 0 01-.187.249.507.507 0 01-.34.113h-1.24l3.368-8.572h1.631l3.374 8.572zm-5.55-3.235h2.734l-1.044-2.852a12.339 12.339 0 01-.326-1.008c-.057.201-.11.388-.163.563a6.725 6.725 0 01-.158.457l-1.043 2.84z" fill="#fff"/><path d="M253.651 52.538a17.6 17.6 0 11-12.61 30.878c-5.58-4.871-7.433-12.634-4.943-19.569.501-1.393-1.719-1.995-2.218-.61a19.887 19.887 0 006.321 22.426 19.885 19.885 0 0031.546-20.76 19.885 19.885 0 00-18.096-14.677c-1.483-.1-1.483 2.2 0 2.3v.012z" fill="#E3484E"/><path d="M252.553 85.42c8.45 0 15.3-6.85 15.3-15.299 0-8.45-6.85-15.3-15.3-15.3-8.449 0-15.299 6.85-15.299 15.3 0 8.45 6.85 15.3 15.299 15.3z" fill="#FF6369"/><path d="M248.291 72.22a.299.299 0 01.234.104l.655.712a3.58 3.58 0 01-1.337 1.029 5.07 5.07 0 01-3.694.02 3.965 3.965 0 01-1.355-.945 4.135 4.135 0 01-.86-1.444 5.381 5.381 0 01-.297-1.836 4.905 4.905 0 01.332-1.844 4.182 4.182 0 012.387-2.372 4.992 4.992 0 011.862-.335 4.409 4.409 0 011.738.317c.474.198.907.483 1.275.843l-.555.77a.49.49 0 01-.127.13.357.357 0 01-.214.057.488.488 0 01-.296-.113 4.506 4.506 0 00-.377-.24c-.184-.1-.377-.18-.578-.24a3.33 3.33 0 00-2.046.107 2.599 2.599 0 00-.907.629 2.92 2.92 0 00-.593.99 3.863 3.863 0 00-.214 1.313c-.006.456.066.91.214 1.34.127.364.323.7.578.988.239.264.532.474.86.614.335.143.697.215 1.061.213.205 0 .41-.012.614-.035a2.63 2.63 0 00.507-.12c.153-.053.3-.122.439-.207.147-.09.285-.196.412-.314a.625.625 0 01.127-.089.329.329 0 01.155-.041zm5.429-5.138v2.532h2.402v1.13h-2.402v2.544h-1.236v-2.544h-2.39v-1.13h2.39v-2.532h1.236zm7.162 0v2.532h2.402v1.13h-2.402v2.544h-1.236v-2.544h-2.39v-1.13h2.39v-2.532h1.236z" fill="#fff"/></svg>