<svg width="425" height="270" fill="none" xmlns="http://www.w3.org/2000/svg"><path d="M.107 152.144C1.499 127.23 26.646 35.949 94.2 29.611c26.164-2.454 117.663 5.864 147.335-8.917 112.054-55.817 154.363 12.104 172.1 75.691 14.941 53.564-18.905 136.355-54.645 115.518-64.139-37.393-31.622 85.228-125.459 45.267-61.891-26.356-92.471-8.674-121.236-4.829C36.241 262.51-2.306 195.302.106 152.144z" fill="#9499EA" fill-opacity=".1"/><path d="M241.643 229.029h-63.905l18.764-62.737h25.334l19.807 62.737z" fill="#BFBFBF"/><path d="M93.887 33.298H321.72a5.664 5.664 0 015.664 5.665V181.21a5.665 5.665 0 01-5.664 5.664H93.887a5.665 5.665 0 01-5.664-5.664V38.963a5.664 5.664 0 015.664-5.665z" fill="#E5E8F5"/><path d="M95.776 33.3h227.832a5.666 5.666 0 015.665 5.664V179.32a5.667 5.667 0 01-5.665 5.665H95.776a5.665 5.665 0 01-5.665-5.665V38.964a5.664 5.664 0 015.665-5.665z" fill="#fff"/><path d="M90.19 157.962V39.385a6.128 6.128 0 016.114-6.111h226.929a6.13 6.13 0 016.114 6.11v118.578H90.19z" fill="#37474F"/><path d="M101.435 39.038h216.518a4.957 4.957 0 014.956 4.956v105.588a4.956 4.956 0 01-4.956 4.956H101.435a4.954 4.954 0 01-4.957-4.956V44.008a4.959 4.959 0 014.957-4.97z" fill="#293666"/><path d="M318.688 154.538H100.697a4.25 4.25 0 01-4.23-4.231V51.835h226.452v98.455a4.247 4.247 0 01-4.231 4.248z" fill="#fff"/><path d="M140.072 221.987h139.227a5.386 5.386 0 010 10.766H140.072a5.379 5.379 0 01-3.897-1.527 5.373 5.373 0 01-1.626-3.856 5.394 5.394 0 011.626-3.856 5.383 5.383 0 013.897-1.527zm69.763-43.45a6.035 6.035 0 100-12.072 6.036 6.036 0 000 12.072z" fill="#D8D6DD"/><path d="M104.219 47.746a2.695 2.695 0 100-5.39 2.695 2.695 0 000 5.39z" fill="#FA538D"/><path d="M114.815 47.746a2.694 2.694 0 100-5.387 2.694 2.694 0 000 5.387z" fill="#FAB353"/><path d="M125.415 47.746a2.694 2.694 0 100-5.387 2.694 2.694 0 000 5.387z" fill="#9DC925"/><path d="M135.773 60.74h32.662a1.675 1.675 0 011.674 1.674v.106a1.675 1.675 0 01-1.033 1.545 1.674 1.674 0 01-.641.126h-32.662a1.67 1.67 0 01-1.671-1.67v-.107a1.657 1.657 0 01.488-1.184 1.666 1.666 0 011.183-.49z" fill="#F9B25F"/><path d="M112.624 60.742h-5.14c-.923 0-1.672.749-1.672 1.671v.107c0 .922.749 1.67 1.672 1.67h5.14a1.67 1.67 0 001.671-1.67v-.107a1.67 1.67 0 00-1.671-1.67z" fill="#fff"/><path d="M175.726 60.74h63.83a1.726 1.726 0 011.171 2.919 1.726 1.726 0 01-1.171.532h-63.83a1.726 1.726 0 01-1.171-2.92 1.726 1.726 0 011.171-.532z" fill="#BBC0D6"/><path d="M135.773 112.43h32.662a1.66 1.66 0 011.184.488 1.675 1.675 0 01.49 1.183v.106a1.672 1.672 0 01-1.674 1.671h-32.662a1.671 1.671 0 01-1.671-1.671v-.106a1.671 1.671 0 011.671-1.671z" fill="#F9B25F"/><path d="M112.624 112.43h-5.14c-.923 0-1.672.748-1.672 1.671v.106c0 .923.749 1.671 1.672 1.671h5.14a1.67 1.67 0 001.671-1.671v-.106a1.67 1.67 0 00-1.671-1.671z" fill="#fff"/><path d="M175.726 112.43h63.831a1.72 1.72 0 011.724 1.724 1.725 1.725 0 01-1.724 1.724h-63.831a1.72 1.72 0 01-1.724-1.724 1.725 1.725 0 011.724-1.724z" fill="#BBC0D6"/><path d="M141.585 69.686h32.666a1.675 1.675 0 011.671 1.674v.106a1.672 1.672 0 01-1.671 1.671h-32.666a1.669 1.669 0 01-1.671-1.671v-.106a1.675 1.675 0 011.671-1.674z" fill="#F9B25F"/><path d="M112.624 69.689h-5.14c-.923 0-1.672.748-1.672 1.67v.107c0 .923.749 1.671 1.672 1.671h5.14a1.67 1.67 0 001.671-1.671v-.106a1.67 1.67 0 00-1.671-1.671z" fill="#fff"/><path d="M186.608 69.686h63.831a1.729 1.729 0 010 3.451h-63.831a1.726 1.726 0 01-1.17-2.92 1.726 1.726 0 011.17-.531z" fill="#BBC0D6"/><path d="M141.585 103.484h32.666a1.676 1.676 0 011.671 1.671v.106a1.671 1.671 0 01-1.671 1.672h-32.666a1.668 1.668 0 01-1.181-.49 1.655 1.655 0 01-.49-1.182v-.106a1.67 1.67 0 011.671-1.671z" fill="#F9B25F"/><path d="M112.624 103.484h-5.14c-.923 0-1.672.748-1.672 1.671v.106c0 .923.749 1.672 1.672 1.672h5.14c.923 0 1.671-.749 1.671-1.672v-.106a1.67 1.67 0 00-1.671-1.671z" fill="#fff"/><path d="M186.607 103.484h63.831a1.727 1.727 0 011.724 1.725 1.728 1.728 0 01-1.065 1.592 1.715 1.715 0 01-.659.132h-63.831a1.725 1.725 0 010-3.449z" fill="#BBC0D6"/><path d="M150.336 77.389h32.669a1.669 1.669 0 011.671 1.674v.106a1.669 1.669 0 01-1.671 1.671h-32.662a1.67 1.67 0 01-1.675-1.67v-.107a1.672 1.672 0 011.668-1.674z" fill="#F9B25F"/><path d="M112.624 77.392h-5.14c-.923 0-1.672.748-1.672 1.671v.106c0 .923.749 1.671 1.672 1.671h5.14a1.67 1.67 0 001.671-1.67v-.107a1.67 1.67 0 00-1.671-1.67z" fill="#fff"/><path d="M195.235 77.389h67.701a1.726 1.726 0 011.649 1.726 1.725 1.725 0 01-1.649 1.725h-67.701a1.725 1.725 0 01-1.649-1.725 1.73 1.73 0 011.649-1.726z" fill="#BBC0D6"/><path d="M150.336 94.786h32.669a1.67 1.67 0 011.671 1.671v.107a1.675 1.675 0 01-1.031 1.546c-.203.085-.42.128-.64.128h-32.662a1.674 1.674 0 01-1.675-1.674v-.107a1.673 1.673 0 011.668-1.67z" fill="#F9B25F"/><path d="M112.624 94.786h-5.14c-.923 0-1.672.748-1.672 1.671v.107c0 .922.749 1.67 1.672 1.67h5.14a1.67 1.67 0 001.671-1.67v-.107a1.67 1.67 0 00-1.671-1.67z" fill="#fff"/><path d="M195.236 94.786h67.7a1.724 1.724 0 010 3.448h-67.7a1.722 1.722 0 01-1.724-1.724 1.721 1.721 0 011.724-1.724z" fill="#BBC0D6"/><path d="M156.159 86.088h32.663a1.676 1.676 0 011.674 1.675v.106a1.675 1.675 0 01-1.674 1.671h-32.663a1.67 1.67 0 01-1.671-1.671v-.106a1.677 1.677 0 011.031-1.547c.203-.085.42-.128.64-.128z" fill="#F9B25F"/><path d="M112.624 86.09h-5.14c-.923 0-1.672.749-1.672 1.672v.106c0 .923.749 1.67 1.672 1.67h5.14a1.67 1.67 0 001.671-1.67v-.106a1.67 1.67 0 00-1.671-1.671z" fill="#fff"/><path d="M198.497 86.089h73.039a1.724 1.724 0 011.219 2.944 1.726 1.726 0 01-1.219.507h-73.039a1.73 1.73 0 01-1.806-1.725 1.726 1.726 0 01.534-1.25 1.735 1.735 0 011.272-.476z" fill="#BBC0D6"/><path d="M141.585 122.127h32.666a1.676 1.676 0 011.671 1.674v.107a1.674 1.674 0 01-1.671 1.671h-32.666c-.443 0-.868-.176-1.181-.49a1.667 1.667 0 01-.49-1.181v-.107a1.675 1.675 0 01.488-1.183 1.66 1.66 0 01.543-.363c.203-.085.42-.128.64-.128z" fill="#F9B25F"/><path d="M112.624 122.131h-5.14c-.923 0-1.672.748-1.672 1.671v.106c0 .923.749 1.671 1.672 1.671h5.14a1.67 1.67 0 001.671-1.671v-.106a1.67 1.67 0 00-1.671-1.671z" fill="#fff"/><path d="M186.607 122.127h63.831a1.723 1.723 0 011.219 2.943 1.727 1.727 0 01-1.219.505h-63.831a1.725 1.725 0 010-3.448z" fill="#BBC0D6"/><path d="M150.336 129.832h32.669a1.672 1.672 0 011.671 1.674v.106a1.67 1.67 0 01-1.671 1.671h-32.662a1.675 1.675 0 01-1.675-1.671v-.106a1.675 1.675 0 011.028-1.546c.203-.084.42-.128.64-.128z" fill="#F9B25F"/><path d="M112.624 129.834h-5.14c-.923 0-1.672.749-1.672 1.671v.107c0 .923.749 1.671 1.672 1.671h5.14a1.67 1.67 0 001.671-1.671v-.107c0-.922-.748-1.671-1.671-1.671z" fill="#fff"/><path d="M195.236 129.832h67.7a1.72 1.72 0 011.724 1.724 1.727 1.727 0 01-1.724 1.724h-67.7a1.723 1.723 0 110-3.448z" fill="#BBC0D6"/><path d="M150.336 147.228h32.669a1.67 1.67 0 011.671 1.671v.106a1.671 1.671 0 01-1.671 1.671h-32.662a1.673 1.673 0 01-1.675-1.671v-.106a1.67 1.67 0 011.668-1.671z" fill="#F9B25F"/><path d="M112.624 147.228h-5.14c-.923 0-1.672.748-1.672 1.671v.106c0 .923.749 1.671 1.672 1.671h5.14a1.67 1.67 0 001.671-1.671v-.106a1.67 1.67 0 00-1.671-1.671z" fill="#fff"/><path d="M195.236 147.228h67.7a1.72 1.72 0 011.724 1.724 1.725 1.725 0 01-1.724 1.724h-67.7a1.723 1.723 0 110-3.448z" fill="#BBC0D6"/><path d="M156.159 138.529h32.663a1.656 1.656 0 011.183.488 1.674 1.674 0 01.491 1.183v.106a1.674 1.674 0 01-1.674 1.675h-32.663a1.673 1.673 0 01-1.671-1.675v-.106a1.67 1.67 0 011.671-1.671z" fill="#F9B25F"/><path d="M112.624 138.529h-5.14c-.923 0-1.672.748-1.672 1.671v.106c0 .923.749 1.671 1.672 1.671h5.14a1.67 1.67 0 001.671-1.671v-.106a1.67 1.67 0 00-1.671-1.671z" fill="#fff"/><path d="M198.497 138.529h73.039a1.72 1.72 0 011.219 2.943 1.723 1.723 0 01-1.219.505h-73.039a1.727 1.727 0 01-1.724-1.724 1.725 1.725 0 011.724-1.724z" fill="#BBC0D6"/><path d="M278.415 114.628c-.049-.035-4.786-3.575-7.232-2.916a1.65 1.65 0 00-1.133 1.026l-.538-.226a2.23 2.23 0 011.522-1.363c2.723-.733 7.53 2.86 7.732 3.016l-.351.463zm6.722 22.477l-.708-.913.917-.726c-.708-.91-2.064-2.967-1.88-4.896a3.311 3.311 0 011.36-2.386l.708.927a2.131 2.131 0 00-.906 1.569c-.195 2.011 1.957 4.464 1.978 4.489l.408.46-1.877 1.476zm14.408-11.414l-.354-.503c-.022-.024-1.916-2.683-3.919-2.952a2.15 2.15 0 00-1.735.524l-.74-.903a3.334 3.334 0 012.634-.779c1.919.262 3.607 2.064 4.337 2.949l.917-.708.708.914-1.848 1.458zm-20.867 9.45l-.192-1.15 1.416-.234a12.38 12.38 0 01-.269-2.815c.061-2.58 1.016-4.679 2.769-6.074l.726.909c-3.576 2.854-1.965 8.228-1.948 8.281l.199.637-2.701.446zm21.074-15.001l-.577-.354c-.049-.028-4.91-2.832-8.496 0l-.708-.917c1.77-1.384 4.025-1.834 6.546-1.302.925.197 1.824.501 2.68.906l.552-1.331 1.062.446-1.059 2.552zm-22.245 2.362c-.121 0-.238 0-.354-.018-1.912-.194-3.594-1.911-4.458-2.963l-.917.708-.708-.913.978-.775a1.089 1.089 0 011.518.166c.588.729 2.124 2.439 3.718 2.598.297.033.598.003.883-.088.285-.092.547-.243.77-.443l.74.903a3.342 3.342 0 01-2.17.825zm10.141-7.138l-.708-.923a2.154 2.154 0 00.907-1.572c.163-1.675-1.374-3.806-1.979-4.486l-.411-.46 1.862-1.476.726.913-.917.726c.708.91 2.064 2.967 1.88 4.893a3.29 3.29 0 01-1.36 2.385zm-7.534-2.272c-.102-.23-2.503-5.735-1.168-8.217a2.228 2.228 0 011.678-1.168l.096.574a1.657 1.657 0 00-1.261.87c-1.203 2.234 1.165 7.654 1.19 7.707l-.535.234z" fill="#37474F"/><path d="M293.572 117.563c4.1 5.18 3.073 9.46-.276 12.115-3.349 2.656-7.753 2.677-11.856-2.503-4.104-5.179-3.155-12.745-1.363-14.161 2.619-2.096 9.392-.626 13.495 4.549z" fill="#FF6369"/><path d="M293.296 129.678c-3.353 2.655-7.753 2.676-11.856-2.503-4.104-5.18-3.155-12.745-1.363-14.161.414-.347 13.63 16.334 13.219 16.664z" fill="#FA535A"/><path d="M284.961 111.379c1.508 1.901-5.937 7.789-7.435 5.898-1.497-1.89-1.062-4.769.991-6.397 2.054-1.629 4.925-1.406 6.444.499zm-56.724-42.432a1.33 1.33 0 01.18-1.207c.896-1.275 4-1.455 4.351-1.473l.028.584c-.874.04-3.281.354-3.894 1.225a.76.76 0 00-.099.708l-.566.163zm15.074 4.769l-.57-.12.134-.637c-.591-.135-1.887-.51-2.478-1.378a1.767 1.767 0 01-.258-1.44l.566.127a1.205 1.205 0 00.17.984c.623.913 2.368 1.186 2.386 1.19l.304.046-.254 1.228zm-1.466-8.848l-.574-.11a1.77 1.77 0 01.815-1.214c.888-.559 2.227-.382 2.832-.265l.135-.64.569.12-.258 1.228-.297-.078c-.018 0-1.731-.456-2.663.128a1.187 1.187 0 00-.559.831zm-1.886 10.254l-.442-.382.524-.605c-.708-.546-2.524-2.206-2.043-4.543l.574.117c-.503 2.436 2.032 4.117 2.057 4.132l.279.184-.949 1.097zm-.311-10.49l-.57-.124c.499-2.333 2.832-3.12 3.696-3.339l-.234-.76.556-.174.429 1.388-.33.053c-.042.007-3.041.524-3.547 2.956zm-7.697 6.709l-.57-.12.141-.659a.562.562 0 01.659-.435c.496.1 1.735.276 2.457-.209a1.193 1.193 0 00.513-.807l.574.11a1.798 1.798 0 01-.761 1.182c-.871.584-2.188.435-2.896.294l-.117.644zm4.902-7.509l-.567-.13a1.197 1.197 0 00-.17-.981c-.619-.91-2.368-1.186-2.386-1.19l-.304-.046.258-1.232.57.12-.134.641c.591.131 1.887.51 2.478 1.377a1.766 1.766 0 01.255 1.441zm-3.931 1.781c-.315-.156-3.084-1.572-3.392-3.101a1.34 1.34 0 01.323-1.176l.438.379a.768.768 0 00-.181.318.766.766 0 00-.01.365c.216 1.063 2.298 2.305 3.08 2.694l-.258.521z" fill="#37474F"/><path d="M240.09 62.706c3.487.733 4.539 2.864 4.064 5.12-.474 2.254-2.294 3.787-5.781 3.054-3.487-.733-5.711-4.205-5.459-5.416.361-1.763 3.685-3.49 7.176-2.758z" fill="#FF6369"/><path d="M244.154 67.829c-.474 2.255-2.294 3.784-5.781 3.051-3.487-.733-5.711-4.206-5.459-5.413.06-.28 11.297 2.082 11.24 2.362z" fill="#FA535A"/><path d="M234.379 63.113c1.281.269.23 5.285-1.063 5.013a2.573 2.573 0 01-1.784-2.997 2.572 2.572 0 012.847-2.016zm-105.514 62.148c0-.057-.309-5.488-2.217-6.819a1.515 1.515 0 00-1.377-.187l-.173-.56a2.09 2.09 0 01.974-.094c.328.047.639.172.909.363 2.142 1.494 2.453 7.031 2.478 7.265l-.594.032zm-9.92 18.214l-1.89-.386.116-.574 1.296.266c.167-.853.761-3.264 2.291-4.316a2.824 2.824 0 012.297-.417l-.127.57a2.208 2.208 0 00-1.841.329c-1.629 1.119-2.096 4.191-2.099 4.223l-.043.305zm16.851 3.456l-1.891-.39.078-.297c0-.032.786-3.045-.266-4.709a2.213 2.213 0 00-1.561-1.026l.106-.574a2.835 2.835 0 011.948 1.289c.991 1.568.587 4.018.407 4.867l1.295.27-.116.57zm-19.37-8.055l-1.703-1.462.379-.442 1.203 1.037a10.969 10.969 0 011.944-2.025c1.798-1.441 3.777-1.993 5.724-1.6l-.113.57c-4.308-.868-7.225 3.596-7.254 3.642l-.18.28zm21.414 4.394l-.057-.33c0-.053-.938-5.31-5.236-6.202l.12-.57c1.947.404 3.541 1.692 4.634 3.721.439.831.772 1.713.992 2.627l1.511-.475.177.556-2.141.673zm-13.151-13.184a2.808 2.808 0 01-1.891-1.204c-1.001-1.472-.679-3.838-.495-4.786a.177.177 0 00-.026-.129.177.177 0 00-.109-.073l-1.129-.23.12-.57 1.126.23a.762.762 0 01.591.882c-.173.878-.474 3.058.404 4.351a2.237 2.237 0 001.515.955l-.106.574zm9.916 1.972a3.253 3.253 0 01-.709-.081l.128-.57a2.224 2.224 0 001.841-.329c1.621-1.115 2.092-4.192 2.099-4.224l.043-.304 1.89.389-.117.57-1.295-.265c-.167.856-.762 3.264-2.291 4.315a2.756 2.756 0 01-1.589.499zm-3.122-6.26l-.52-.259c.103-.212 2.57-5.176 5.123-5.707a2.074 2.074 0 011.837.496l-.379.446a1.487 1.487 0 00-1.338-.354c-2.28.453-4.698 5.328-4.723 5.378z" fill="#37474F"/><path d="M135.798 137.697c-1.221 5.965-4.853 7.789-8.716 6.985-3.862-.803-6.485-3.894-5.261-9.852 1.225-5.959 7.138-9.789 9.205-9.368 3.016.62 5.997 6.27 4.772 12.235z" fill="#FF6369"/><path d="M127.068 144.682c-3.859-.793-6.485-3.894-5.26-9.852 1.224-5.959 7.137-9.789 9.204-9.368.492.099-3.452 19.316-3.944 19.22z" fill="#FA535A"/><path d="M135.058 127.944c-.45 2.195-9.028.435-8.578-1.77.45-2.206 2.737-3.576 5.105-3.091 2.368.485 3.923 2.67 3.473 4.861z" fill="#37474F"/><path d="M96.752 233.959c22.746-.127 36.153-18.02 33.08-17.598-4.769.655-12.002 4.135-20.718 2.991-6.117-.8-9.58-5.82-11.984-8.39a1.938 1.938 0 01-.513-1.31l-.478-85.256a1.948 1.948 0 00-1.954-1.937l-9.973.057a1.94 1.94 0 00-1.933 1.958l.5 89.465a1.948 1.948 0 01-.562 1.378 1.95 1.95 0 01-1.372.576l-3.24.022a1.952 1.952 0 01-1.953-1.937v-.889a1.948 1.948 0 00-1.958-1.933l-19.05.107a1.938 1.938 0 00-1.933 1.954l.106 19.05a1.949 1.949 0 00.576 1.373 1.933 1.933 0 001.378.564l19.05-.107a1.942 1.942 0 001.793-1.212 1.96 1.96 0 00.144-.745 1.947 1.947 0 011.933-1.958h3.24a1.946 1.946 0 011.954 1.936 1.943 1.943 0 001.954 1.933l11.913-.067v-.025z" fill="#D8D6DD"/><path d="M99.044 81.867l.276 45.987a2.743 2.743 0 01-1.677 2.544c-.332.14-.688.212-1.049.214l-14.585.089a2.743 2.743 0 01-2.758-2.726l-.276-45.988a2.744 2.744 0 012.722-2.762l14.59-.084a2.74 2.74 0 012.757 2.726z" fill="#FF6369"/><path d="M142.999 245.365l-12.745.042v-3.239l15.223-8.142 13.024 9.622 117.735-.272.032-.287 18.99-17.415 23.174 10.798.262 4.786-18.82.967a5.025 5.025 0 00.489 10.036h.021l18.976-.97.439 5.211-23.433 13.075-20.675-15.053-116.475.269-12.868 8.9-16.286-7.959.103-3.54 12.841-.046a3.401 3.401 0 002.397-1.003 3.396 3.396 0 00-2.422-5.787l.018.007z" fill="#D8D6DD"/><path d="M403.397 222.758h-15.655a4.733 4.733 0 01-4.726-4.726v-5.544a4.73 4.73 0 014.726-4.726h15.655a4.733 4.733 0 014.726 4.726v5.544a4.733 4.733 0 01-4.726 4.726zm-15.655-12.082a1.812 1.812 0 00-1.813 1.812v5.544a1.817 1.817 0 001.813 1.816h15.655a1.819 1.819 0 001.812-1.816v-5.544a1.813 1.813 0 00-1.812-1.812h-15.655z" fill="#37474F"/><path d="M368.345 216.846h53.706a2.948 2.948 0 012.949 2.949v25.093a2.949 2.949 0 01-2.949 2.949h-53.706a2.949 2.949 0 01-2.949-2.949v-25.093a2.951 2.951 0 012.949-2.949z" fill="#FF6369"/><path d="M365.396 225.601h59.586v2.039h-59.586v-2.039z" fill="#fff"/><path d="M382.085 221.722h-3.325c-.727 0-1.317.59-1.317 1.317v7.431c0 .727.59 1.317 1.317 1.317h3.325c.727 0 1.317-.59 1.317-1.317v-7.431c0-.727-.59-1.317-1.317-1.317z" fill="#37474F"/><path d="M382.318 232.221h-3.795a1.523 1.523 0 01-1.519-1.518v-7.899c0-.199.039-.396.115-.581a1.532 1.532 0 01.822-.822c.185-.076.382-.115.582-.115h3.795a1.523 1.523 0 011.519 1.518v7.899a1.53 1.53 0 01-.447 1.072 1.53 1.53 0 01-1.072.446zm-3.795-10.064a.641.641 0 00-.645.647v7.899c0 .084.016.168.048.247a.656.656 0 00.349.349.66.66 0 00.248.048h3.795a.644.644 0 00.644-.644v-7.899a.644.644 0 00-.644-.644l-3.795-.003z" fill="#fff"/><path d="M410.821 221.722h-3.324c-.728 0-1.317.59-1.317 1.317v7.431c0 .727.589 1.317 1.317 1.317h3.324c.727 0 1.317-.59 1.317-1.317v-7.431c0-.727-.59-1.317-1.317-1.317z" fill="#37474F"/><path d="M411.054 232.221h-3.792a1.529 1.529 0 01-1.522-1.518v-7.899a1.524 1.524 0 011.522-1.518h3.792a1.52 1.52 0 011.519 1.518v7.899a1.52 1.52 0 01-1.519 1.518zm-3.792-10.064a.651.651 0 00-.458.189.651.651 0 00-.189.458v7.899a.637.637 0 00.19.457.647.647 0 00.457.187h3.792a.65.65 0 00.648-.644v-7.899a.651.651 0 00-.648-.644l-3.792-.003z" fill="#fff"/><path d="M44.389 237.025h6.397a27.15 27.15 0 005.158 3.597c2.124 1.091 4.574.326 5.49 2.521.053.352.053.71 0 1.062H44.028v-1.062l.361-6.118z" fill="#37474F"/><path d="M44.389 237.025h6.397a27.15 27.15 0 005.158 3.597c2.124 1.091 5.537.284 5.49 2.521 0 .266-17.407 0-17.407 0l.361-6.118z" fill="#814C74"/><path d="M65.52 237.025h6.397a27.148 27.148 0 005.158 3.597c2.124 1.091 4.574.326 5.49 2.521.053.352.053.71 0 1.062H65.159v-1.062l.361-6.118z" fill="#37474F"/><path d="M65.52 237.025h6.397a27.148 27.148 0 005.158 3.597c2.124 1.091 5.537.284 5.49 2.521 0 .266-17.407 0-17.407 0l.361-6.118z" fill="#814C74"/><path d="M69.258 112.844c-.124 5.629-11.329 1.823-11.329 1.823s1.87 12.483-5.183 5.388c-2.832-2.832-4.35-9.413-1.363-11.888.882-.729 2.995-.159 2.995-.159s1.215-4.46 4.249-2.333c5.961 4.149 10.734 2.893 10.63 7.169z" fill="#37474F"/><path d="M95.025 149.191l.906-2.803-16.618-7.534c-1.53-1.905-4.928-4.627-4.928-4.627l-4.584 5.034s3.873 2.935 5.646 4.298c2.057 1.589 19.578 5.632 19.578 5.632zm-33.174-13.37h-7.937l.326-10.398h7.969l-.358 10.398z" fill="#FFDFAE"/><path d="M60.921 127.795c-.202-.5-6.139-3.3-6.847-2.425 0 0 .733 5.207 3.186 6.298 2.022.902 4.603-2.008 4.992-2.599-.127-.807-1.126-.779-1.33-1.274z" fill="#F4CA92"/><path d="M62.068 130.336s-.764 4.369-3.186 4.348c-3.225-.032-4.811-3.388-4.811-3.388l-6.727.85-7.455 3.519c.97 2.74 2.56 7.753 2.56 7.753l3.511-1.77-.655 27.968 25.632-.584-2.478-30.245 2.003 1.611 6.444-4.553-8.979-5.799s-5.618.29-5.859.29z" fill="#00C5AD"/><path d="M72.356 237.146h-7.08s-2.652-36.599-2.698-36.705c-2.698-6.599-3.99-18.618-3.99-18.618l-7.222 55.323s-7.08.166-7.08 0c-1.218-10.975 2.906-35.233 2.906-35.233l-2.4-33.841 2.644-36.397 3.335-.556 3.58 7.619 7.282-.291 2.283-8.294 2.74-.138 5.53 38.054 1.243 31.302-1.073 37.775z" fill="#243CA2"/><path d="M50.02 117.775c.135 1.771 1.856 2.33 2.17 3.895.847 4.188 4.5 8.408 7.92 8.408 2.896 0 7.123-5.498 7.123-11.683a14.367 14.367 0 00-.13-2.701c-.072-.584-6.695.708-11.786-2.107-1.625-.906-1.147 4.935-1.852 4.85-.07-.01-3.7-3.997-3.444-.662z" fill="#FFDFAE"/><path d="M58.175 156.662a9.098 9.098 0 01-5.703-1.936 7.105 7.105 0 01-2.768-5.24c-.022-.442.623-.768 2.025-1.023a36.546 36.546 0 014.563-.439c3.098-.142 10.54-.159 10.578.662.195 4.174-3.498 7.746-8.23 7.966l-.465.01zm1.65-8.436c-3.678 0-7.788.241-9.339.864-.315.127-.496.265-.492.382a6.83 6.83 0 002.662 5.027 8.876 8.876 0 005.969 1.862c4.563-.212 8.125-3.632 7.955-7.632-.322-.298-3.356-.503-6.755-.503z" fill="#56557E"/><path d="M115.489 135.507l1.172 3.965-23.306 6.886-1.171-3.965 23.305-6.886z" fill="#FF6369"/><path opacity=".8" d="M136.65 153.138c12.138 0 21.977-9.839 21.977-21.977 0-12.139-9.839-21.978-21.977-21.978s-21.978 9.839-21.978 21.978c0 12.138 9.84 21.977 21.978 21.977z" fill="#fff"/><path d="M136.662 154.593a23.454 23.454 0 11-.051-46.908 23.454 23.454 0 01.051 46.908zm0-43.966a20.77 20.77 0 00-5.841.85 20.393 20.393 0 00-14.092 23.938 20.397 20.397 0 0040.26-5.856 20.396 20.396 0 00-20.327-18.932zm-34.278 31.122a3.44 3.44 0 01-2.329 4.284l-65.06 19.199a3.446 3.446 0 01-4.402-3.672 3.442 3.442 0 012.452-2.941l65.059-19.199a3.447 3.447 0 014.28 2.329z" fill="#FF6369"/><path opacity=".3" d="M131.531 116.716c4.16-2.676 10.178-1.795 13.981 1.062a16.586 16.586 0 015.876 9.148c.514 2.188 3.895 1.26 3.371-.931a19.942 19.942 0 00-7.789-11.446c-4.786-3.313-12.146-4.106-17.212-.849-1.884 1.214-.135 4.248 1.77 3.02l.003-.004zm-5.515 3.458a1.767 1.767 0 100-3.533 1.767 1.767 0 000 3.533z" fill="#FF6369"/><path d="M99.097 145.295c-.803-1.147-1.554-1.771-3.809 0-1.416 1.097-2.276 2.577-1.47 3.724.808 1.147 2.55.945 4.005-.078s2.092-2.503 1.275-3.646zM41.748 159.76c-1.77.485-2.556 1.621-2.24 2.775.314 1.154.707 1.887 3.341 1.154 2.634-.733 2.617-1.518 2.302-2.676-.316-1.158-1.611-1.738-3.403-1.253z" fill="#FFDFAE"/><path d="M42.367 143.21l-3.12 1.77 3.98 14.699-2.988.92s-9.863-15.736-6.808-18.763c1.628-1.614 6.613-5.859 6.613-5.859s1.526 4.655 2.323 7.233z" fill="#FFDFAE"/><path opacity=".7" d="M358.03 95.688c-1.363 4.921-11.219-6.574-19.022 1.314-6.726 6.815-14.246.453-18.317 5.866-.853 1.133-15.977-31.119-13.849-33.243 3.434-3.434 9.852 3.434 15.931 2.782 5.43-.58 19.269-1.904 22.456 5.647 4.319 10.26 14.901 10.044 12.801 17.634z" fill="#F5F5F5"/><path d="M326.24 124.921c-2.478-3.541.779-3.796 1.823-3.541 1.229.315 2.808 1.866 2.924 3.332 0 0 11.577 6.949 12.391 7.271 3.682 1.416 4.535 2.146 4.535 2.146l-1.037 6.114c-.354.198-3.154-1.197-7.357-4.468-4.05-3.144-11.934-8.914-13.279-10.854z" fill="#FFDFAE"/><path d="M345.45 139.909c.202.521 3.186 1.063 5.257 1.487 3.151.634 6.153-1.38 5.902-3.501-.184-1.557-8.802-4.68-9.68-4.567-.24.032-1.649 6.146-1.479 6.581z" fill="#243CA1"/><path d="M351.434 241.356l-4.637-.436.676-7.166 4.634.439-.673 7.163z" fill="#FFDFAE"/><path d="M360.977 166.893c-2.333-1.837-11.842.97-11.842.97l-3.42 32.588 1.172 35.427 5.207.51 3.424-37.997s13.368-25.278 5.459-31.498z" fill="#243CA1"/><path d="M353.264 244.574h-16.462a3.013 3.013 0 01.354-1.809l15.715-.227.393 2.036z" fill="#37474F"/><path d="M393.08 182.351l1.834 4.298-6.613 2.832-1.834-4.298 6.613-2.832z" fill="#FFDFAE"/><path d="M364.704 133.807l-12.21-.899-4.39 7.338c-.744 1.243-2.124 4.012-2.018 5.453l3.094 22.99 13.98 28.414 2.355 3.841a2.727 2.727 0 003.706.924l22.495-13.248-1.543-5.335-19.507 7.187s-3.314-16.427-5.587-20.218c-2.729-4.55-.375-36.447-.375-36.447z" fill="#344FC1"/><path d="M395.953 179.674l6.344 15.195a2.999 2.999 0 01-1.805.375l-6.277-14.408 1.738-1.162z" fill="#37474F"/><path d="M400.496 195.23c-1.915-.308-2.856-3.448-5.607-4.641-2.17-.938-2.478-2.716-2.478-2.716s1.791-1.632.729-3.508c-.51-.903-1.168-.4-1.703-.814a.67.67 0 01-.216-.733l3.986-2.666 6.5 14.965c-.385.15-.804.19-1.211.113zm-63.342 47.52c1.02-1.646 4.284-1.303 6.443-3.381 1.703-1.639 3.459-1.232 3.459-1.232s.814 2.287 2.953 2.029c1.033-.124.821-.921 1.416-1.257a.681.681 0 01.761.085l.917 4.709-16.31.215a2.15 2.15 0 01.361-1.168z" fill="#8F97B9"/><path d="M355.105 136.351l5.771-2-2.889-8.327-2.885.999.003 9.328z" fill="#F4CA92"/><path d="M359.984 131.777l-1.997-5.753-2.885.999v3.795l4.882.959z" fill="#F4CA92"/><path d="M353.485 122.718c-1.2 5.534 1.841 7.721 7.257 5.916 3.187-1.062 4.348-4.071 2.804-8.702-1.543-4.631-4.892-5.523-8.093-4.457-3.2 1.065-1.101 3.306-1.968 7.243z" fill="#FFDFAE"/><path d="M346.624 72.46l-29.659 29.66.618.618 29.66-29.66-.619-.618zm3.643 3.643l-29.66 29.659.619.619 29.659-29.66-.618-.618zm4.021 4.022l-29.659 29.659.618.618 29.66-29.66-.619-.617zm3.961 3.964l-29.659 29.659.618.619 29.66-29.66-.619-.618zm3.897 3.891l-29.66 29.66.619.619 29.659-29.66-.618-.618zm-19.541-19.542l-29.66 29.66.619.618 29.659-29.66-.618-.618zm-3.772-3.769l-29.659 29.66.618.617 29.66-29.66-.619-.617zm-3.707-3.709l-29.659 29.66.618.618 29.66-29.66-.619-.617zm-3.771-3.77l-29.66 29.66.619.617 29.659-29.66-.618-.617zm-3.83-3.833l-29.66 29.66.619.618 29.659-29.66-.618-.618z" fill="#B0C9F1"/><path d="M308.572 69.005l-.619.618 40.228 40.228.619-.618-40.228-40.228zm-3.643 3.645l-.618.618 40.228 40.229.618-.619-40.228-40.228zm-4.024 4.023l-.618.618 40.229 40.229.618-.619-40.229-40.228zm11.688-11.693l-.618.619 40.228 40.228.619-.618-40.229-40.229zm3.771-3.77l-.618.618 40.229 40.228.618-.618-40.229-40.229zm3.709-3.706l-.618.618 40.229 40.229.618-.619-40.229-40.228zm3.77-3.77l-.618.618 40.228 40.229.619-.619-40.229-40.228zm3.83-3.834l-.618.618 40.228 40.229.619-.619L327.673 49.9z" fill="#B0C9F1"/><path d="M304.502 69.791l2.375-.987 37.616 90.411-2.376.987-37.615-90.41z" fill="#FF6369"/><path d="M325.8 121.431c-.648.517-.64 1.639.043 2.538.683.9 1.77 1.225 2.436.708.665-.516.64-1.639-.043-2.538-.683-.899-1.466-1.49-2.436-.708zm9.016 23.303c-.914-1.522-.404-2.595.456-3.246.953-.708 3.473 2.015 3.895 2.4l11.637 1.027 5.908-1.508 1.19 5.13c-.397.708-5.792 1.876-6.766 1.71l-11.92-3.431c-.994.308-3.186-.067-4.4-2.082z" fill="#FFDFAE"/><path d="M355.656 149.996c1.635.109 3.111-.808 4.903-1.473 2.715-1.006 3.986-4.125 2.726-5.75-.924-1.196-3.735-1.313-5.732-.573-1.607.595-3.597.52-4.372 1.845-.11.191 1.526 5.89 2.475 5.951z" fill="#243CA1"/><path d="M373.062 124.407c.573-.354-8.267-9.187-16.07-12.037-3.214-1.175-7.038 2.885-.354 7.611 6.684 4.727 13.12 6.391 16.424 4.426z" fill="#D8984D"/><path d="M356.058 124.368c.662.545-.191-2.149.921-1.908 1.341.29-1.817 4.804-.177 7.434 1.741 2.776-1.77 15.4 7.948 12.607 2.187-.627 1.932 1.724 4.758 1.628 4.602-.159 2.988 2.273 4.602 4.751 5.664 8.607 16.798-5.08 12.61-6.336-4.414-1.321-3.409-12.32-10.196-11.23-1.639.265-4.549-1.583-4.687-4.27-.074-1.451-2.917-.021-5.31-1.929-1.462-1.169-1.664-1.533-2.068-3.187-1.023-4.17-3.82-5.572-6.071-5.236-1.154.174-2.595-.814-3.587-.757-2.407.131-3.044 5.696 1.094 5.887.291.011-.056 2.365.163 2.546z" fill="#694A52"/><path d="M373.116 124.446c-.432.502-6.96-2.478-16.71-3.778-10.143-1.359-11.442-6.096-9.657-9.158.322-.556 11.119-1.77 19.517 2.478 8.397 4.248 9.173 7.714 6.85 10.458z" fill="#F9B25F"/><path d="M367.149 118.781c-.252.591-1.54.563-7.159-1.416-5.618-1.979-5.937-2.914-5.721-3.42 1.629-3.834 5.852-5.912 9.428-4.638 3.576 1.275 5.08 5.636 3.452 9.474z" fill="#37474F"/><path d="M367.45 118.251c-.252.591-1.54.563-7.155-1.416-5.615-1.979-5.937-2.914-5.721-3.42 1.628-3.834 5.852-5.908 9.427-4.637 3.576 1.271 5.084 5.643 3.449 9.473z" fill="#F9B25F"/></svg>