<svg width="431" height="364" fill="none" xmlns="http://www.w3.org/2000/svg"><path d="M431 188.779c0 86.419-107.75 80.669-215.5 156.478C119.853 412.551 0 275.199 0 188.779 0 102.36 96.482 32.302 215.5 32.302S431 102.359 431 188.779z" fill="#9499EA" fill-opacity=".1"/><g opacity=".3" fill="#7861ED"><path opacity=".3" d="M159.831 298.4l3.349-.726-.183-.838-3.347.726.181.838zm3.02-2.232l-.183-.838-3.342.725.181.839 3.344-.726zm1.03 1.352l3.347-.74-.187-.838-3.344.74.184.838zm3.011-2.245l-.187-.837-3.338.739.184.837 3.341-.739zm1.04 1.347l3.344-.757-.192-.836-3.34.757.188.836zm3-2.261l-.192-.836-3.332.755.188.837 3.336-.756zm1.048 1.344l3.34-.777-.197-.833-3.336.776.193.834zm2.986-2.281l-.196-.833-3.329.774.193.836 3.332-.777zm1.055 1.337l3.335-.799-.202-.833-3.332.798.199.834zm2.97-2.299l-.202-.833-3.322.796.197.833 3.327-.796zm1.062 1.327l3.332-.825-.208-.833-3.325.824.201.834zm2.955-2.323l-.208-.833-3.316.821.204.833 3.32-.821zm1.077 1.322c1.111-.278 2.219-.562 3.325-.853l-.217-.831c-1.104.292-2.21.576-3.318.852l.21.832zm2.935-2.348l-.216-.83c-1.1.291-2.203.574-3.308.849l.208.833c1.108-.277 2.214-.561 3.316-.852zm1.088 1.31a245.88 245.88 0 003.317-.884l-.224-.828c-1.102.3-2.205.598-3.31.883l.217.829zm2.913-2.373l-.224-.828a250.28 250.28 0 01-3.299.879l.217.83c1.105-.285 2.205-.582 3.306-.881zm1.099 1.299c1.106-.295 2.208-.609 3.309-.916l-.233-.825c-1.1.308-2.198.621-3.301.916l.225.825zm2.889-2.403l-.232-.826c-1.096.308-2.19.62-3.291.913l.226.827c1.103-.294 2.199-.606 3.297-.914zm1.112 1.291c1.104-.304 2.2-.636 3.3-.954l-.242-.823c-1.097.317-2.191.648-3.29.952l.232.825zm2.864-2.436l-.242-.822c-1.092.316-2.181.645-3.278.948l.234.825c1.099-.302 2.191-.632 3.286-.951zm1.128 1.278c1.1-.319 2.192-.663 3.29-.993l-.25-.82c-1.093.329-2.183.672-3.28.991l.24.822zm2.837-2.467l-.25-.82c-1.089.328-2.174.669-3.266.986l.243.822c1.092-.317 2.181-.659 3.273-.988zm1.145 1.269l3.277-1.034-.262-.817-3.268 1.032.253.819zm2.804-2.505l-.262-.816-3.252 1.026.253.819 3.261-1.029zm1.156 1.249l3.263-1.078-.273-.812-3.254 1.074.264.816zm2.772-2.539l-.272-.813-3.239 1.069.264.816 3.247-1.072zm1.181 1.235l3.249-1.122-.285-.809-3.24 1.118.276.813zm2.737-2.577l-.284-.809-3.223 1.112.275.812 3.232-1.115zm1.19 1.216l3.219-1.16-.284-.81-3.22 1.161.285.809zm2.708-2.616l-.284-.81-3.222 1.162.285.809 3.221-1.161zm1.082 1.288c.609-.12 1.21-.281 1.798-.481.17-.064.337-.137.5-.218.083-.038.164-.086.246-.131.033-.017.056-.034.092-.055a.809.809 0 01.432-.114l-.084-.857a1.315 1.315 0 00-.703.185c-.054.033-.102.066-.157.095-.068.036-.134.076-.205.109-.138.068-.28.13-.424.184-.555.187-1.122.336-1.697.449l.202.834zm2.917-2.54l-.083-.855a2.6 2.6 0 00-1.191.318l-.276.157c-.044.024-.086.05-.133.071a3.17 3.17 0 01-.286.125c-.495.161-1 .292-1.511.391l.202.833a13.073 13.073 0 001.614-.423 3.74 3.74 0 00.362-.158c.06-.026.116-.061.174-.092l.208-.125c.28-.161.597-.244.92-.242zm1.1 1.419c.153-.047.302-.107.446-.178l-.159.066a7.98 7.98 0 001.612-.797 5.731 5.731 0 011.131-.575l.159-.066.021-.009-.352-.782-.053.024-.034.016-.012.003c-.889.279-1.669 1.011-2.743 1.372l.046-.019c-.1.049-.205.091-.312.125l.25.82zm2.577-2.965l-.352-.783-.109.052.155-.065a8.008 8.008 0 00-1.607.794 5.756 5.756 0 01-1.136.578l-.038.013-.118.052c-.03.012-.054.024-.071.029l.25.82c.07-.023.139-.051.205-.084l.027-.012.017-.005c.895-.281 1.674-1.014 2.743-1.372l-.042.018.076-.035zm.848 1.37a3.79 3.79 0 00.781-.058c.262-.057.516-.146.756-.267l2.126-.968-.353-.782-2.121.966c-.184.096-.38.167-.583.211a3.016 3.016 0 01-.615.042l.009.856zm3.028-2.699l-.353-.781-2.111.961c-.087.046-.18.081-.276.102a1.634 1.634 0 01-.312.018l.008.857a2.42 2.42 0 00.481-.028c.155-.035.305-.09.446-.164l2.117-.965z" fill-rule="evenodd" clip-rule="evenodd"/><path opacity=".3" d="M234.259 275.478l-3.122 1.398.35.783 3.123-1.398-.351-.783zm-.63-1.409l-3.127 1.398.35.783 3.127-1.398-.35-.783z"/><path opacity=".3" d="M235.262 275.965l3.128-1.411-.356-.781-3.124 1.409.352.783zm2.486-2.814l-.356-.78-3.113 1.404.351.783 3.118-1.407zm1.297 1.099c1.042-.486 2.083-.961 3.117-1.471l-.375-.772c-1.026.507-2.066.98-3.101 1.464l.359.779zm2.446-2.86l-.375-.772c-1.013.5-2.048.971-3.075 1.452l.359.778c1.033-.481 2.07-.954 3.091-1.458zm1.326 1.072c1.041-.491 2.057-1.041 3.086-1.561l-.4-.758c-1.022.514-2.03 1.061-3.064 1.549l.378.77zm2.366-2.926l-.4-.759c-1.009.508-1.999 1.045-3.023 1.529l.377.77c1.029-.486 2.028-1.028 3.046-1.54zm1.36 1.018c1.014-.555 2.033-1.102 3.024-1.708l-.437-.738c-.979.598-1.988 1.141-2.993 1.69l.406.756zm2.238-3.035l-.437-.738c-.958.583-1.95 1.119-2.938 1.659l.406.755c.997-.545 1.999-1.083 2.969-1.676zm1.416.958c.503-.287.989-.607 1.477-.923l1.463-.949-.482-.708-1.443.937c-.482.312-.962.627-1.458.912l.443.731zm2.073-3.148l-.481-.708-1.41.913c-.47.305-.937.613-1.426.891l.444.734c.494-.282.968-.594 1.444-.903l1.429-.927zm1.47.851l1.424-1.013c.471-.344.921-.718 1.382-1.076l-.534-.672c-.453.352-.895.721-1.359 1.06l-1.403.999.49.702zm1.843-3.298l-.533-.672c-.44.342-.868.7-1.319 1.029l-1.366.971.49.704 1.387-.986c.458-.335.895-.7 1.341-1.046zm1.535.752c.467-.351.89-.757 1.332-1.138.436-.391.884-.767 1.309-1.169l-.588-.625c-.417.395-.858.765-1.286 1.148-.435.375-.851.775-1.311 1.119l.544.665zm1.583-3.43l-.588-.624c-.403.382-.833.739-1.245 1.111-.422.363-.823.75-1.27 1.083l.541.664c.455-.34.863-.734 1.291-1.104.424-.376.86-.74 1.271-1.13zm1.586.603l1.247-1.238c.405-.422.783-.871 1.177-1.305l-.642-.568c-.386.426-.757.866-1.156 1.28l-1.224 1.215.598.616zm1.267-3.565l-.641-.568c-.375.412-.731.838-1.116 1.238l-1.184 1.173.598.615 1.208-1.197c.391-.406.756-.841 1.135-1.261zm1.644.47c.4-.425.754-.907 1.121-1.374l1.094-1.405-.708-.485-1.064 1.366c-.359.453-.7.92-1.094 1.339l.651.559zm.942-3.65l-.708-.485-1.013 1.294c-.34.43-.66.872-1.044 1.279l.651.558c.39-.413.722-.869 1.072-1.312l1.042-1.334zm1.697.197a17.506 17.506 0 001.53-3.344l-.814-.271a16.636 16.636 0 01-1.453 3.177l.737.438zm.065-3.834l-.813-.271a15.137 15.137 0 01-1.316 2.874l.738.438a15.97 15.97 0 001.391-3.041zm1.689-.254c.334-1.191.527-2.417.576-3.653l-.857-.034a15.045 15.045 0 01-.544 3.457l.825.23zm-.965-3.717l-.857-.034a13.447 13.447 0 01-.488 3.1l.826.232c.301-1.076.475-2.182.519-3.298zm1.556-.716c0-.309-.009-.618-.035-.925-.016-.309-.05-.615-.089-.921a16.427 16.427 0 00-.336-1.842l-.829.219a15.67 15.67 0 01.432 3.477l.857-.008zm-1.953-3.295l-.829.219c.12.504.212 1.014.275 1.528.034.261.063.521.076.784.023.261.029.523.03.785l.858-.008a14.991 14.991 0 00-.41-3.308zm1.255-1.145a21.163 21.163 0 00-1.465-3.332l-.753.41a20.384 20.384 0 011.402 3.189l.816-.267zm-2.82-2.596l-.754.41c.14.231.247.478.368.718.115.243.248.478.344.729l.312.743c.104.25.176.493.267.739l.815-.265a19.792 19.792 0 00-1.352-3.074zm.977-1.397a23.98 23.98 0 00-2.059-2.952l-.666.541a23.331 23.331 0 011.987 2.848l.738-.437zm-3.258-1.981l-.666.541a21.767 21.767 0 011.857 2.661l.739-.436a22.403 22.403 0 00-1.93-2.766zm.721-1.548a32.883 32.883 0 00-2.457-2.566l-.588.625c.842.789 1.64 1.624 2.392 2.499l.653-.558zm-3.516-1.443l-.588.625a30.28 30.28 0 012.278 2.379l.652-.557a31.28 31.28 0 00-2.342-2.447zm.517-1.624a51.189 51.189 0 00-2.669-2.264l-.536.669a53.347 53.347 0 012.628 2.229l.577-.634zm-3.634-1.06l-.535.67a50.84 50.84 0 012.552 2.166l.577-.634a50.14 50.14 0 00-2.594-2.202zm.392-1.66c-.458-.353-.912-.711-1.374-1.055l-.345-.261-.176-.133a2.048 2.048 0 00-.257-.176l-.729-.456-.453.729.727.454c.07.041.137.086.2.137l.172.13.342.259c.458.343.908.698 1.362 1.047l.531-.675zm-3.694-.773l-.452.729.722.451c.034.02.067.042.098.067l.166.125.339.256 1.341 1.032.529-.675c-.45-.348-.896-.699-1.352-1.041l-.341-.257a3.539 3.539 0 00-.323-.234l-.727-.453zm.206-1.69l-2.916-1.82-.443.733 2.906 1.817.453-.73zm-3.713-.5l-.443.734 2.892 1.808.451-.729-2.9-1.813zm.188-1.706l-2.916-1.821-.434.74 2.906 1.816.444-.735zm-3.697-.49l-.434.739 2.892 1.808.442-.734-2.9-1.813zm.157-1.698l-3.024-1.65-.419.75 3.011 1.642.432-.742zm-3.778-.303l-.419.75 2.987 1.629.433-.741-3.001-1.638zm.12-1.694l-3.018-1.641-.409.754 3.01 1.636.417-.749zm-3.753-.284l-.409.753 2.999 1.629.416-.749-3.006-1.633z" fill-rule="evenodd" clip-rule="evenodd"/><path opacity=".3" d="M235.99 215.522l-.408.754 3.012 1.63.408-.754-3.012-1.63zm-.733 1.359l-.407.755 3.011 1.624.407-.754-3.011-1.625zm-2.921-3.32l-.406.755 3.016 1.621.405-.756-3.015-1.62zm-.731 1.36l-.406.755 3.016 1.62.406-.755-3.016-1.62zm-2.921-3.317l-.405.756 3.021 1.617.405-.757-3.021-1.616zm-.727 1.363l-.404.756 3.018 1.612.404-.757-3.018-1.611zm-2.929-3.313l-.403.756 3.021 1.61.403-.757-3.021-1.609zm-.725 1.364l-.403.757 3.023 1.605.402-.757-3.022-1.605zm-2.943-3.303l-.401.758 3.026 1.6.401-.758-3.026-1.6zm-.721 1.363l-.401.758 3.026 1.601.401-.758-3.026-1.601zm-2.943-3.294l-.399.758 3.031 1.596.399-.759-3.031-1.595zm-.719 1.368l-.399.759 3.029 1.591.399-.759-3.029-1.591zm-2.954-3.291l-.398.759 3.033 1.59.398-.759-3.033-1.59zm-.716 1.37l-.397.76 3.033 1.585.397-.76-3.033-1.585zm-2.96-3.286l-.396.76 3.036 1.582.397-.761-3.037-1.581zm-.713 1.368l-.396.76 3.037 1.582.396-.761-3.037-1.581zm-2.968-3.274l-.395.761 3.042 1.575.394-.762-3.041-1.574zm-.71 1.371l-.394.761 3.04 1.572.394-.761-3.04-1.572zm-2.973-3.274l-.393.762 3.043 1.571.394-.762-3.044-1.571zm-.708 1.374l-.392.763 3.042 1.565.393-.762-3.043-1.566zm-2.977-3.267l-.392.763 3.047 1.565.392-.763-3.047-1.565zm-.705 1.374l-.392.763 3.046 1.563.391-.763-3.045-1.563zm-2.989-3.257l-.389.764 3.051 1.555.39-.764-3.052-1.555zm-.701 1.375l-.389.765 3.049 1.553.389-.764-3.049-1.554zm-2.993-3.253l-.389.765 3.055 1.551.389-.764-3.055-1.552zm-.698 1.379l-.388.765 3.053 1.547.387-.765-3.052-1.547zm-3.003-3.25l-.387.765 3.056 1.547.387-.766-3.056-1.546zm-.696 1.38l-.386.765 3.055 1.542.387-.766-3.056-1.541zm-3.005-3.245l-.385.766 3.061 1.537.385-.766-3.061-1.537zm-.693 1.379l-.385.766 3.059 1.537.385-.766-3.059-1.537zm-3.011-3.231l-.384.767 3.062 1.534.384-.767-3.062-1.534zm-.692 1.381l-.383.767 3.061 1.53.383-.767-3.061-1.53zm-3.018-3.235l-.383.767 3.064 1.529.383-.767-3.064-1.529zm-.689 1.385l-.382.767 3.064 1.525.382-.768-3.064-1.524zm-3.028-3.227l-.381.768 3.068 1.52.38-.768-3.067-1.52zm-.686 1.383l-.38.768 3.067 1.521.381-.768-3.068-1.521zm-3.028-3.217l-.38.769 3.072 1.517.38-.769-3.072-1.517zm-.682 1.386l-.379.77 3.069 1.513.379-.769-3.069-1.514zm-3.034-3.215l-.379.769 3.073 1.513.379-.769-3.073-1.513zm-.681 1.386l-.377.77 3.072 1.508.378-.77-3.073-1.508z"/><path opacity=".3" d="M165.301 179.217l-3.079-1.509-.374.772 3.075 1.507.378-.77zm-3.752-.119l-.375.771 3.07 1.504.377-.77-3.072-1.505zm.024-1.706c-1.019-.507-2.072-.994-3.105-1.479l-.363.777c1.032.485 2.074.967 3.095 1.474l.373-.772zm-3.757-.081l-.363.776c1.033.486 2.052.958 3.077 1.465l.374-.771c-1.025-.508-2.055-.985-3.088-1.47zm-.001-1.701l-3.117-1.436-.356.78 3.111 1.433.362-.777zm-3.757-.032l-.357.779 3.102 1.43.362-.778-3.107-1.431zm-.01-1.703l-3.12-1.416-.354.781 3.118 1.416.356-.781zm-3.757-.01l-.353.782 3.113 1.414.356-.78-3.116-1.416z" fill-rule="evenodd" clip-rule="evenodd"/><path opacity=".3" d="M147.153 170.746l-.354.781 3.117 1.412.354-.781-3.117-1.412zm-.639 1.404l-.354.781 3.12 1.414.354-.781-3.12-1.414z"/><path opacity=".3" d="M146.5 170.452l-3.108-1.422-.359.779 3.111 1.424.356-.781zm-3.754-.02l-.359.779 3.118 1.427.355-.781-3.114-1.425zm-.003-1.704l-3.091-1.447-.367.775 3.098 1.45.36-.778zm-3.753-.053l-.367.774 3.11 1.458.361-.778-3.104-1.454zm.011-1.701l-3.075-1.482-.375.771 3.082 1.486.368-.775zm-3.749-.094l-.375.772 3.092 1.489.369-.774-3.086-1.487z" fill-rule="evenodd" clip-rule="evenodd"/><path opacity=".3" d="M132.206 163.678l-.376.771 3.078 1.5.376-.771-3.078-1.5zm-.677 1.389l-.375.771 3.078 1.496.374-.771-3.077-1.496z"/><path opacity=".3" d="M131.557 163.362l-3.096-1.487-.367.775 3.089 1.484.374-.772zm-3.758-.091l-.367.774 3.076 1.477.375-.771-3.084-1.48zm.007-1.702c-1.037-.489-2.08-.97-3.129-1.441l-.351.782c1.043.47 2.081.948 3.115 1.435l.365-.776zm-3.762-.034l-.351.782c1.033.466 2.063.94 3.09 1.423l.365-.775c-1.03-.487-2.065-.963-3.104-1.43zm-.03-1.701c-1.05-.468-2.111-.918-3.175-1.361l-.327.791c1.056.44 2.11.887 3.155 1.352l.347-.782zm-3.763.066l-.327.791c1.041.435 2.082.875 3.118 1.337l.347-.784c-1.04-.462-2.088-.907-3.138-1.344zm-.088-1.699a78.298 78.298 0 00-1.603-.634l-.401-.156-.337-.143a9.128 9.128 0 01-.677-.341l-.415.75c.243.134.489.257.739.371.25.115.508.212.777.316.533.206 1.065.414 1.595.631l.322-.794zm-3.762.076l-.415.75c.273.151.558.294.851.428.145.065.309.133.449.19l.397.154c.53.205 1.059.411 1.58.625l.321-.795a84.514 84.514 0 00-1.588-.629 10.706 10.706 0 01-1.595-.723zm.171-1.686c-.465-.283-.955-.603-1.495-.91a11.897 11.897 0 00-1.295-.637c-.166-.072-.274-.109-.414-.164l-.309.8c.257.1.547.213.811.341.265.128.529.263.784.407.509.288.991.603 1.471.896l.447-.733zm-3.761-.272l-.309.8c.125.05.287.109.381.152.107.044.217.091.334.146.226.105.451.224.678.353.454.256.92.56 1.429.871l.446-.732a15.584 15.584 0 00-2.959-1.59zm-.103-1.698c-.526-.208-1.056-.404-1.578-.618l-1.549-.663-.343.786 1.567.671c.526.215 1.059.414 1.589.622l.314-.798zm-3.746.134l-.343.786 1.598.683c.535.219 1.073.42 1.609.631l.314-.798c-.532-.208-1.068-.409-1.598-.625l-1.58-.677zm-.036-1.693l-1.528-.713-.764-.357-.754-.38-.382.768.761.383.772.361 1.544.72.351-.782zm-3.733-.069l-.382.768.774.39.787.367 1.574.735.35-.783-1.557-.727-.779-.363-.767-.387zm.059-1.701c-1.012-.493-1.991-1.053-2.984-1.583l-.416.75c1.002.534 1.99 1.099 3.012 1.597l.388-.764zm-3.736-.235l-.416.75c1.02.544 2.023 1.117 3.064 1.624l.388-.764c-1.031-.503-2.025-1.071-3.036-1.61zm.13-1.697l-1.465-.844c-.489-.281-.965-.583-1.448-.874l-.448.731c.487.291.968.598 1.46.882l1.478.852.423-.747zm-3.718-.403l-.447.731c.494.298.981.607 1.48.895l1.5.865.423-.746-1.489-.857c-.495-.285-.977-.592-1.467-.888zm.199-1.686a132.79 132.79 0 01-2.852-1.829l-.472.715a136.2 136.2 0 002.873 1.842l.451-.728zm-3.703-.543l-.473.716a144.98 144.98 0 002.91 1.866l.453-.729a125.685 125.685 0 01-2.89-1.853zm.26-1.684c-.943-.625-1.87-1.271-2.797-1.921l-.494.7c.931.654 1.865 1.307 2.814 1.934l.477-.713zm-3.688-.66l-.494.701c.942.661 1.885 1.32 2.845 1.955l.477-.712a123.255 123.255 0 01-2.828-1.944zm.309-1.67c-.916-.666-1.84-1.319-2.745-2.004l-.511.688c.908.688 1.839 1.344 2.759 2.015l.497-.699zm-3.669-.766l-.511.689c.916.693 1.856 1.355 2.784 2.032l.5-.698c-.926-.673-1.861-1.333-2.773-2.023zm.35-1.668c-.912-.672-1.806-1.374-2.707-2.061l-.525.679c.907.689 1.803 1.393 2.72 2.069l.512-.687zm-3.654-.84l-.525.678c.913.695 1.814 1.403 2.74 2.083l.513-.687c-.92-.676-1.819-1.382-2.728-2.074zm.381-1.661c-.894-.701-1.79-1.4-2.676-2.112l-.535.671c.89.713 1.787 1.416 2.684 2.117l.527-.676zm-3.64-.904l-.534.671c.893.716 1.796 1.422 2.698 2.128l.527-.677c-.9-.703-1.802-1.407-2.69-2.122zm.404-1.652l-2.43-1.958a2.366 2.366 0 00-.394-.284l-.428.743c.108.064.21.139.302.224l2.413 1.945.537-.67zm-3.596-.903l-.432.749c.052.031.1.067.143.108l2.384 1.921.536-.669-2.4-1.935a1.391 1.391 0 00-.23-.174zm-.011-1.662a.762.762 0 01-.337-.217l-1.884-1.795-.588.625 1.91 1.821c.076.08.16.153.25.216.096.057.196.103.3.138l.35-.788zm-3.28-.888l-.588.625 1.96 1.868c.262.268.581.473.934.598l.347-.785a1.643 1.643 0 01-.72-.463l-1.933-1.843z" fill-rule="evenodd" clip-rule="evenodd"/><path opacity=".3" d="M72.628 127.809l-.587.626 2.495 2.341.587-.625-2.495-2.342zm-1.056 1.123l-.588.624 2.493 2.345.587-.624-2.492-2.345z"/><path opacity=".3" d="M72.102 127.318a231.463 231.463 0 01-2.461-2.354l-.598.615c.817.793 1.64 1.58 2.47 2.362l.589-.623zm-3.537-1.247l-.598.615c.825.799 1.654 1.592 2.487 2.378l.589-.625a224.48 224.48 0 01-2.478-2.368zm.569-1.606c-.81-.791-1.6-1.595-2.384-2.406l-.62.593a119.58 119.58 0 002.402 2.424l.602-.611zm-3.497-1.339l-.62.594c.803.832 1.612 1.653 2.434 2.457l.601-.612a116.98 116.98 0 01-2.415-2.439zm.627-1.582a75.99 75.99 0 01-2.255-2.499l-.652.558a76.87 76.87 0 002.283 2.528l.624-.587zm-3.427-1.495l-.652.558a76.713 76.713 0 002.333 2.583l.624-.589a73.285 73.285 0 01-2.305-2.552zm.719-1.545a52.735 52.735 0 01-2.066-2.628l-.693.506a53.89 53.89 0 002.1 2.672l.659-.55zm-3.313-1.719l-.692.506a53.52 53.52 0 002.166 2.752l.657-.55a53.244 53.244 0 01-2.13-2.708zm.843-1.479a37.282 37.282 0 01-1.795-2.786l-.742.43a38.14 38.14 0 001.836 2.85l.7-.494zm-3.131-2.014l-.742.43a40.061 40.061 0 001.91 2.966l.7-.494a38.834 38.834 0 01-1.868-2.902zm.996-1.376c-.279-.475-.505-.974-.76-1.46-.224-.5-.468-.99-.667-1.499l-.792.327c.205.524.459 1.03.687 1.545.262.499.496 1.013.782 1.499l.75-.412zm-2.853-2.371l-.791.327c.217.555.48 1.087.724 1.628.273.525.521 1.065.82 1.575l.75-.415c-.292-.497-.532-1.022-.8-1.533-.237-.526-.493-1.044-.703-1.582zm1.172-1.225c-.197-.508-.365-1.026-.534-1.541-.144-.524-.316-1.041-.423-1.572l-.833.196c.113.552.289 1.087.438 1.629.175.535.35 1.07.554 1.595l.798-.307zm-2.46-2.76l-.833.196c.12.587.305 1.156.465 1.732.185.566.371 1.134.586 1.689l.801-.306a32.485 32.485 0 01-.568-1.637c-.155-.557-.336-1.107-.452-1.674zm1.352-1.019a22.913 22.913 0 01-.413-3.22l-.856.05a23.63 23.63 0 00.428 3.341l.84-.171zm-1.955-3.131l-.855.049c.068 1.197.221 2.387.458 3.562l.84-.172a24.567 24.567 0 01-.443-3.439zm1.501-.771c.008-.544-.015-1.08.02-1.63.034-.551.058-1.11.117-1.63l-.853-.088c-.063.553-.086 1.121-.122 1.684-.036.563-.012 1.125-.02 1.688l.858-.024zM54.31 97.22l-.853-.09c-.068.615-.091 1.194-.129 1.784-.037.59-.013 1.194-.02 1.791l.857-.024c.007-.577-.015-1.158.02-1.733.036-.574.06-1.148.125-1.729zm1.608-.503c.164-1.03.442-2.037.83-3.004l-.791-.329a14.854 14.854 0 00-.887 3.207l.848.126zm-.597-3.595l-.791-.329a16.38 16.38 0 00-.987 3.574l.848.125c.182-1.155.494-2.285.93-3.37zm1.703-.01a14.288 14.288 0 011.655-2.692l-.682-.521a15.145 15.145 0 00-1.749 2.847l.776.367zm.428-3.628l-.68-.52a16.687 16.687 0 00-1.916 3.123l.775.367a15.81 15.81 0 011.821-2.97zm1.64.41a19.807 19.807 0 012.258-2.3l-.564-.646a20.656 20.656 0 00-2.354 2.399l.66.547zm1.245-3.464l-.563-.646a22.141 22.141 0 00-2.53 2.578l.66.547c.742-.89 1.556-1.72 2.433-2.478zm1.536.723a25.866 25.866 0 012.658-1.904l-.458-.726a26.73 26.73 0 00-2.745 1.967l.545.663zm1.837-3.211l-.459-.725a28.259 28.259 0 00-2.9 2.08l.544.663a27.42 27.42 0 012.815-2.018zm1.413.946l.713-.416.74-.424 1.486-.832-.417-.75c-.99.553-1.999 1.109-2.965 1.685l.443.737zm2.189-3.022l-.416-.75-1.502.84-.747.424-.762.448.44.736c.995-.593 1.986-1.139 2.987-1.698zm1.376 1.004l2.999-1.63-.407-.755-3.005 1.635.413.75zm2.267-2.988l-.407-.755-3.017 1.64.414.75 3.01-1.635zm1.364 1.018l3.016-1.629-.41-.753-3.013 1.628.407.755zm2.28-2.985l-.41-.753-3.007 1.624.406.755 3.01-1.626zm1.371 1.009c1.005-.55 2.008-1.108 3.008-1.673l-.423-.747c-.995.564-1.994 1.12-2.996 1.666l.411.754zm2.247-3.016l-.423-.746c-.986.56-1.978 1.111-2.976 1.655l.412.753c1-.547 1.996-1.101 2.987-1.662zm1.453.936l1.434-1.004c.477-.329.934-.687 1.402-1.03l-.514-.686c-.914.696-1.853 1.346-2.799 2.006l.476.714zm1.91-3.269l-.514-.687c-.453.333-.894.679-1.357.997l-1.371.958.476.714c.926-.646 1.864-1.295 2.767-1.983zm1.515.797c.913-.716 1.828-1.429 2.71-2.183l-.552-.656c-.872.746-1.777 1.45-2.679 2.158l.521.68zm1.715-3.364l-.551-.655c-.853.73-1.74 1.419-2.624 2.112l.52.681c.896-.701 1.793-1.398 2.656-2.138zm1.555.716c.872-.765 1.745-1.53 2.583-2.332l-.589-.625a81.534 81.534 0 01-2.552 2.305l.558.652zm1.525-3.456l-.588-.624c-.812.776-1.656 1.516-2.5 2.257l.56.65c.85-.749 1.707-1.498 2.528-2.283zm1.591.625a85.451 85.451 0 002.449-2.47l-.622-.59a88.478 88.478 0 01-2.421 2.44l.594.62zm1.332-3.534l-.62-.592a84.225 84.225 0 01-2.375 2.393l.595.618c.81-.796 1.62-1.59 2.4-2.42zm1.62.537l1.171-1.284c.39-.428.762-.87 1.144-1.306l-.65-.559c-.379.43-.747.87-1.133 1.291l-1.158 1.27.626.588zm1.145-3.598l-.65-.56c-.37.423-.733.855-1.111 1.27l-1.137 1.246.624.586 1.149-1.26c.385-.418.75-.854 1.125-1.282zm1.647.452l1.107-1.335 1.08-1.357-.676-.529-1.07 1.345-1.096 1.323.655.554zm.972-3.644l-.675-.529L94.47 59.9l-1.077 1.3.654.553 1.088-1.313 1.062-1.334zm1.66.38l1.047-1.38 1.02-1.398-.695-.5-1.013 1.387-1.038 1.369.679.522zm.816-3.681l-.695-.5-1 1.368-1.023 1.347.679.524 1.031-1.36 1.008-1.379zm1.677.313l.993-1.416.969-1.43-.713-.478-.962 1.421-.987 1.405.7.498zm.678-3.707l-.713-.477-.951 1.404-.973 1.387.698.497.981-1.397.958-1.414z" fill-rule="evenodd" clip-rule="evenodd"/></g><g opacity=".3" fill="#7861ED"><path opacity=".3" d="M103.554 51.839c.276-.417.616-.837.983-1.306a20.4 20.4 0 00.549-.734c.086-.121.19-.272.271-.396l.233-.367-.72-.466c-.308.498-.645.978-1.01 1.436-.357.459-.714.897-1.02 1.358l.714.475zm.741-3.643l-.72-.465-.23.36a9.098 9.098 0 01-.216.317 17.04 17.04 0 01-.485.648c-.341.438-.728.91-1.087 1.45l.713.476c.33-.496.701-.95 1.05-1.399.353-.442.678-.906.975-1.387zm1.687.224l1.858-2.895-.719-.468-1.861 2.9.722.463zm.564-3.739l-.719-.468-1.868 2.912.722.463 1.865-2.907zm1.69.24c.628-.951 1.264-1.893 1.919-2.815l-.699-.497a97.861 97.861 0 00-1.936 2.84l.716.472zm.661-3.708l-.699-.497a99.76 99.76 0 00-1.968 2.885l.716.472a98.19 98.19 0 011.951-2.86zm1.674.315a56.803 56.803 0 012.058-2.676l-.662-.545a55.453 55.453 0 00-2.09 2.718l.694.503zm.863-3.656l-.662-.545a56.963 56.963 0 00-2.147 2.79l.694.505a58.595 58.595 0 012.115-2.75zm1.648.436a37.416 37.416 0 012.268-2.452l-.602-.61c-.813.796-1.58 1.64-2.32 2.508l.654.554zm1.183-3.55l-.601-.61a40.14 40.14 0 00-2.416 2.608l.654.555a39.423 39.423 0 012.363-2.553zm1.585.614a29.312 29.312 0 012.527-2.133l-.512-.688a30.102 30.102 0 00-2.603 2.197l.588.624zm1.604-3.37l-.512-.689a31.693 31.693 0 00-2.741 2.313l.589.625a30.77 30.77 0 012.664-2.25zm1.483.834c.456-.304.896-.634 1.375-.897.471-.277.937-.57 1.424-.796l-.387-.765c-.512.238-.994.541-1.482.828-.497.273-.952.613-1.424.929l.494.701zm2.103-3.069l-.387-.765c-.556.26-1.065.578-1.585.884-.528.292-1.012.651-1.511.986l.492.702c.484-.324.952-.673 1.463-.955.503-.295.997-.605 1.528-.852zm1.308 1.073a5.35 5.35 0 01.737-.316c.25-.094.495-.195.75-.283.519-.154 1.027-.344 1.558-.458l-.212-.833c-.553.12-1.085.316-1.626.478-.266.093-.526.2-.791.299a5.864 5.864 0 00-.776.333l.36.78zm2.661-2.552l-.212-.833c-.593.13-1.166.339-1.749.515-.288.1-.575.217-.863.326a6.63 6.63 0 00-.845.362l.358.78c.261-.135.53-.25.807-.347.274-.103.546-.215.822-.31.561-.166 1.111-.369 1.682-.493zm1.046 1.329a22.682 22.682 0 013.236-.449l-.058-.855a23.52 23.52 0 00-3.362.466l.184.838zm3.132-1.989l-.058-.855c-1.206.08-2.405.246-3.588.5l.183.837a24.205 24.205 0 013.463-.482zm.796 1.502a29.857 29.857 0 013.307.064l.066-.855a30.691 30.691 0 00-3.407-.067l.034.857zm3.423-1.474l.066-.855a32.27 32.27 0 00-3.585-.07l.034.856a31.29 31.29 0 013.485.069zm.578 1.606c1.107.1 2.215.268 3.321.461l.15-.844a41.47 41.47 0 00-3.388-.47l-.083.853zm3.59-1.059l.15-.843a43.11 43.11 0 00-3.51-.488l-.083.853c1.156.106 2.303.278 3.443.478zm.43 1.649c1.102.212 2.218.458 3.305.723l.208-.833a69.9 69.9 0 00-3.351-.733l-.162.843zm3.678-.775l.208-.833a69.916 69.916 0 00-3.433-.75l-.162.843c1.136.218 2.261.466 3.387.74zm.31 1.664l3.282.96.242-.822-3.302-.966-.222.828zm3.718-.521l.242-.822-3.34-.977-.221.828 3.319.971zm.255 1.684l3.294 1 .25-.82-3.3-1-.244.82zm3.746-.477l.25-.82-3.309-1.003-.246.822 3.305 1zm.238 1.689l3.29 1.021.257-.818-3.292-1.024-.255.821zm3.752-.452l.256-.818-3.3-1.025-.253.82 3.297 1.023zm.227 1.69l3.286 1.038.26-.818-3.291-1.038-.255.818zm3.754-.433l.259-.817-3.293-1.041-.257.818 3.291 1.04z" fill-rule="evenodd" clip-rule="evenodd"/><path opacity=".3" d="M158.166 34.795l-.26.817 3.287 1.045.26-.817-3.287-1.045zm.47-1.472l-.261.817 3.288 1.048.26-.817-3.287-1.048zm3.505 2.739l-.26.817 3.289 1.046.259-.818-3.288-1.045zm.468-1.47l-.259.818 3.287 1.044.26-.817-3.288-1.045z"/><path opacity=".3" d="M165.863 38.145l3.294 1.04.257-.818-3.29-1.038-.261.816zm3.756-.434l.257-.818-3.287-1.037-.259.817 3.289 1.038zm.229 1.689l3.301 1.023.25-.82-3.297-1.022-.254.819zm3.753-.451l.25-.82-3.291-1.02-.255.819 3.296 1.02zm.243 1.687c1.1.34 2.207.67 3.311 1l.245-.823a274.758 274.758 0 01-3.306-.997l-.25.82zm3.753-.479l.245-.822c-1.1-.325-2.199-.654-3.295-.994l-.25.82c1.097.34 2.197.672 3.3.996zm.257 1.687c1.103.333 2.214.648 3.323.966l.236-.824c-1.106-.318-2.215-.631-3.316-.964l-.243.822zm3.747-.517l.235-.825c-1.101-.316-2.204-.628-3.302-.96l-.243.82c1.1.333 2.206.647 3.31.965zm.274 1.683c1.107.324 2.225.617 3.337.925l.225-.827c-1.109-.308-2.223-.6-3.328-.923l-.234.825zm3.743-.566l.224-.828c-1.103-.306-2.211-.596-3.311-.919l-.234.825c1.102.326 2.214.617 3.321.922zm.296 1.685c1.113.307 2.235.583 3.352.878l.213-.833c-1.114-.292-2.232-.569-3.342-.875l-.223.83zm3.734-.619l.212-.832c-1.107-.292-2.218-.565-3.323-.87l-.223.828c1.109.308 2.223.582 3.334.875zm.323 1.679c1.119.285 2.245.548 3.368.823l.198-.833c-1.119-.274-2.24-.536-3.356-.82l-.21.83zm3.724-.679l.198-.834c-1.112-.272-2.226-.532-3.335-.814l-.208.833c1.111.28 2.229.541 3.345.814zm.352 1.675l3.384.761.183-.837-3.372-.759-.195.835zm3.712-.748l.183-.838-3.348-.753-.196.833 3.361.758zm.384 1.668l3.403.695.163-.842-3.387-.692-.179.839zm3.698-.821l.163-.842-3.359-.686-.18.839 3.376.689zm.423 1.656a65.64 65.64 0 003.474.551l.111-.85a66.816 66.816 0 01-3.427-.544l-.158.843zm3.675-.979l.112-.85a63.943 63.943 0 01-3.342-.53l-.158.843c1.123.21 2.252.389 3.388.537zm.532 1.626c1.166.14 2.336.242 3.51.31l.049-.856a57.895 57.895 0 01-3.457-.306l-.102.852zm3.599-1.231l.05-.856a54.432 54.432 0 01-3.364-.297l-.102.85a55.96 55.96 0 003.416.303zm.651 1.581c1.175.055 2.354.062 3.532.034l-.021-.857c-1.158.027-2.317.02-3.473-.033l-.038.856zm3.494-1.509l-.021-.857c-1.121.026-2.245.02-3.367-.033l-.038.857c1.142.053 2.284.06 3.426.033zm.778 1.518c1.17-.042 2.374-.14 3.511-.27l-.083-.853c-1.141.13-2.305.224-3.46.266l.032.857zm3.359-1.806l-.084-.853a43.263 43.263 0 01-3.368.26l.035.856a44.575 44.575 0 003.417-.263zm.88 1.459a21.86 21.86 0 001.788-.224c.3-.057.6-.107.898-.17l.892-.208-.215-.83a21.025 21.025 0 01-3.45.578l.087.854zm3.19-2.095l-.215-.83-.789.184c-.264.055-.532.1-.798.15-.534.087-1.067.159-1.636.204l.089.853c1.13-.093 2.25-.281 3.349-.56zm1.132 1.282a17.492 17.492 0 003.418-1.425l-.417-.75a16.62 16.62 0 01-3.248 1.354l.247.82zm2.667-2.775l-.416-.75c-.936.512-1.922.922-2.944 1.226l.247.82a15.934 15.934 0 003.113-1.296zm1.43.952a12.34 12.34 0 002.897-2.462l-.651-.558a11.48 11.48 0 01-2.702 2.293l.456.727zm1.724-3.466l-.651-.559a9.93 9.93 0 01-2.349 1.99l.455.727a10.79 10.79 0 002.545-2.158zm1.676.367a7.44 7.44 0 00.542-.805c.083-.138.173-.275.249-.414l.209-.421.208-.422a4.09 4.09 0 00.217-.521c.12-.358.184-.642.255-.878l-.822-.243c-.079.264-.144.546-.244.843a7.46 7.46 0 01-.375.833l-.195.397c-.073.13-.155.254-.233.382a6.698 6.698 0 01-.497.741l.686.508zm.198-3.897l-.823-.243c-.092.314-.158.591-.224.78a1.85 1.85 0 01-.118.276l-.173.353-.172.354c-.063.112-.133.215-.199.323-.125.22-.266.43-.421.628l.69.51c.17-.22.325-.45.463-.691.072-.12.149-.235.218-.356l.185-.378c.127-.24.24-.488.338-.741.086-.25.151-.529.236-.815zm2.194-2.407l.176-.706a8.89 8.89 0 00.192-.869c.106-.583.219-1.166.27-1.757l-.852-.097c-.048.568-.158 1.128-.259 1.689-.042.282-.114.558-.184.833l-.196.783.853.123zm-.897-3.507l-.852-.097c-.042.527-.147 1.046-.241 1.566-.043.26-.1.519-.17.773l-.23.924.853.121.211-.845c.068-.267.137-.534.178-.807.098-.543.205-1.084.251-1.635zm1.614-.564a23.602 23.602 0 00-.006-3.548l-.855.065a22.9 22.9 0 01.006 3.415l.855.068zm-1.547-3.431l-.855.065a21.27 21.27 0 01.006 3.173l.855.069a21.991 21.991 0 00-.006-3.307zm1.48-.858a25.163 25.163 0 00-.65-3.476l-.83.216a24.3 24.3 0 01.628 3.352l.852-.092zm-2.142-3.088l-.83.216c.268 1.029.464 2.075.587 3.131l.852-.092a23.654 23.654 0 00-.609-3.255zm1.308-1.105a26.99 26.99 0 00-1.224-3.304l-.783.35a26.144 26.144 0 011.184 3.194l.823-.24zm-2.634-2.675l-.783.349a24.74 24.74 0 011.112 2.999l.823-.24a25.47 25.47 0 00-1.152-3.108zm1.105-1.308a28.732 28.732 0 00-1.725-3.06l-.72.465a28.048 28.048 0 011.672 2.966l.773-.37zm-3.022-2.222l-.72.465a26.264 26.264 0 011.576 2.795l.774-.37a27.122 27.122 0 00-1.63-2.89zm.896-1.454c-.167-.24-.342-.475-.513-.712l-.258-.355a2.481 2.481 0 00-.173-.228l-.181-.189a20.5 20.5 0 00-1.284-1.255l-.568.643c.423.384.838.777 1.226 1.198.11.105.209.221.296.347l.25.345.497.69.708-.484zm-3.432-1.582l-.568.642c.385.352.765.711 1.12 1.097l.111.115c.023.023.049.066.083.108l.236.325.469.652.708-.484-.485-.674-.243-.336a1.856 1.856 0 00-.25-.292 20.37 20.37 0 00-1.181-1.153zm.443-1.646a18.703 18.703 0 00-2.993-1.983l-.403.757a17.765 17.765 0 012.854 1.892l.542-.665zm-3.719-.621l-.404.757a16.21 16.21 0 012.607 1.727l.541-.667a17.132 17.132 0 00-2.744-1.817zm.056-1.702a21.017 21.017 0 00-3.331-1.27l-.238.825a20.16 20.16 0 013.193 1.217l.376-.772zm-3.757.213l-.238.823c1.013.29 1.999.667 2.949 1.125l.375-.772a19.523 19.523 0 00-3.086-1.177zm-.291-1.68a26.923 26.923 0 00-3.462-.63l-.1.852c1.129.13 2.249.333 3.351.608l.211-.83zm-3.64.904l-.1.851c1.062.121 2.115.312 3.152.572l.211-.833a25.325 25.325 0 00-3.263-.59z" fill-rule="evenodd" clip-rule="evenodd"/><g opacity=".3"><path opacity=".3" fill-rule="evenodd" clip-rule="evenodd" d="M233.027 38.704l-.007.007-.003.003-.003.004-.012.017-.025.032-.05.076-.048.092-.024.052-.013.027-.012.03-.791-.325.016-.042.018-.04.036-.078.019-.038.021-.037.041-.075.09-.139.05-.065.024-.032.007-.008.006-.008.014-.015.646.562zm.391-.748v.356l-.252.25-.604-.605h.856z"/><path opacity=".3" d="M233.416 36.892h-.857v.781h.857v-.78z"/><path opacity=".3" fill-rule="evenodd" clip-rule="evenodd" d="M231.404 38.46l-.795-.327.027-.067.031-.068.064-.136.286-.544v-.427h.857v.781l-.155.202-.016.023-.016.024-.03.047-.06.096-.053.097-.027.05-.024.048-.046.1-.022.049-.021.051z"/></g></g><path d="M192.357 186.007L149.308 346.67l-13.687-.018 43.986-164.062 12.75 3.417z" fill="#F9B25F"/><path d="M185.922 186.007l43.049 160.663 13.687-.018-43.987-164.062-12.749 3.417z" fill="#F9B25F"/><path d="M183.572 23.708V196.44h11.134V23.708h-11.134z" fill="#293666"/><path d="M111.936 45.603h158.736V234.56H111.936V45.603z" fill="#E5E8F5"/><path d="M109.77 42.898h158.736v188.955H109.77V42.897z" fill="#fff"/><path d="M275.505 36.853H102.771v11.134h172.734V36.853z" fill="#293666"/><path d="M133.822 343.499h17.624v3.179h-17.624v-3.179zm92.366 0h17.623v3.179h-17.623v-3.179z" fill="#D8984D"/><path d="M133.838 176.046h83.841a3.79 3.79 0 110 7.583h-83.841a3.792 3.792 0 110-7.583zm-.645 16.047h107.472c1.737 0 3.145 1.697 3.145 3.79 0 2.092-1.408 3.79-3.145 3.79H133.193c-1.736.003-3.144-1.695-3.144-3.79 0-2.096 1.408-3.79 3.144-3.79zm0 15.966h107.472c1.737 0 3.145 1.697 3.145 3.79 0 2.092-1.408 3.789-3.145 3.789H133.193c-1.736.004-3.144-1.694-3.144-3.789 0-2.096 1.408-3.79 3.144-3.79zm110.054-48.775H130.049V80.233h1.029v78.024h112.169v1.027z" fill="#C7D9F5"/><path d="M138.246 146.535c10.294-5.989 15.583-29.181 22.774-16.198 6.497 11.731 8.83 6.645 12.269 6.33 5.699-.525 8.016 5.164 14.421 13.83 3.406 4.607 4.518-24.711 9.978-20.996 14.967 10.186 12.707-7.657 19.124-3.949 5.112 2.953 19.533-17.532 23.781-25.257.337-.613 1.628 40.606 1.741 53.059.026 2.832-106.75-.105-106.713-.193" fill="#C7D9F5"/><path d="M140.021 129.788l-.66-.792 25.674-21.426 20.063 19.666 51.134-38.712.621.82-51.841 39.247-20.032-19.635-24.959 20.832z" fill="#C7D9F5"/><path d="M237.839 97.413l-1.016-.166 2.009-12.305-10.199-.746.075-1.027 11.32.83-2.189 13.414z" fill="#C7D9F5"/><path d="M295.094 355.34c19.983 0 36.183-4.37 36.183-9.76s-16.2-9.76-36.183-9.76c-19.984 0-36.184 4.37-36.184 9.76s16.2 9.76 36.184 9.76z" fill="#EAEFF4"/><path d="M308.819 144.863c-7.572-1.921-16.341-6.933-19.147-16.563-1.462-5.016 1.156-13.917 1.156-18.674 0-2.393-1.671-6.622-.189-9.141 1.916-3.257 6.114-3.351 6.118-3.36 3.119-6.127 17.534-3.867 19.817 4.683 1.619 6.065 12.435.647 15.125 10.007 3.478 12.104 13.952 21.895 21.059 11.227 0 0 9.364 8.191 2.259 18.859-1.453 2.181-11.858 11.703-23.318 12.129-8.558.317-18.078-7.948-22.88-9.167z" fill="#37474F"/><path d="M312.941 137.137h-17.988v6.249h17.988v-6.249z" fill="#5D5D7D"/><path d="M311.251 153.111l-19.181-.25 9.962-28.493 8.595-.389.624 29.132zm-70.346-9.776l-3.981 3.061s26.139 28.059 27.367 28.044c6.49-.077 13.515-8.602 18.503-14.08 3.041-3.338-5.92-8.314-5.92-8.314l-11.939 9.302-24.03-18.013zm123.611-11.385l-21.308 24.447-16.468-8.505 1.142 10.348s9.451 10.579 18.292 11.979c3.373.534 22.032-34.162 22.032-34.162l-3.69-4.107zm-63.878 197.079l-3.167 2.437-8.864 11.878-5.261 1.02 9.943-14.818-5.602-39.034-3.896-48.703 18.811-.289-3.446 45.286 1.482 42.223z" fill="#FFDFAE"/><path d="M364.745 252.221l2.593 1.841 13.32 4.275 2.952 4.96-16.17-4.195-45.735 27.559-21.445-43.688 17.92-4.765 9.903 27.501 36.662-13.488z" fill="#FFDFAE"/><path d="M368.622 250.58c.131.192 9.632-3.665 9.632-3.665l.5 1.142s-8.554 5.54-8.439 5.789c1.525 3.332 10.736-.019 12.488 4.431.038.097 2.029 5.081 2.016 5.135-.333 1.403-2.9-.304-2.9-.304s-1.839-2.785-3.145-3.282c-4.282-1.63-12.678-2.91-13.946-3.51-1.755-.833-2.582-3.255-2.582-3.255s5.176-4.243 6.376-2.481z" fill="#37474F"/><path d="M321.494 246.632l-37.298.78s-9.813-38.693-2.797-46.249c8.64-9.305 35.409-9.436 42.893 1.041 5.966 8.349-2.798 44.428-2.798 44.428z" fill="#344FC1"/><path d="M309.348 126.206s-8.383 2.32-9.77 5.875c0 0 3.451 6.07 5.913 5.731 2.654-.365 5.261-6.007 5.517-9.232-1.182-1.8-1.66-2.374-1.66-2.374z" fill="#F4CA92"/><path d="M323.592 201.192l-44.456-.298s11.936-37.062 7.957-42.507c-.276-.377-14.447 13.44-14.447 13.44s-6.048-9.115-5.997-11.835c.032-1.649 7.796-10.832 12.29-13.748 5.123-3.322 13.86-5.91 13.86-5.91l2.156-3.195s2.968 2.559 4.997 3.326c.256.096.735-.049.958.17 2.157 2.124 2.859 9.363 2.859 9.363s2.608-9.358 3.885-9.678c2.26-.568 5.282-3.184 5.282-3.184l1.865 3.683s9.767 2.213 25.194 12.747l-5.367 12.014-6.661-4.687-4.375 40.299z" fill="#9499EA"/><path d="M314.907 116.958c.885 3.614-1.234 3.339-2.189 7.163-1.484 5.947-3.457 10.467-7.719 10.412-5.889-.074-10.312-6.819-12.645-17.737-1.092-5.115-.495-9.32 1.35-12.281 1.924-3.088-.191 5.439 7.576 6.539 3.915.555 9.931-3.694 9.873.106-.148 9.681 2.99 2.677 3.754 5.798zm55.969 12.02c-.397-1.95-1.57-.958-2.332-2.6-.558-1.204 2.929-4.917 2.271-5.712-.933-1.128-4.262 4.762-4.983 5.47 0 0-1.411 1.425-1.525 6.084l3.807 3.911c1.082-1.241 3.864-1.741 2.762-7.153zm-135.789 10.706c.666-1.774 1.479.42 2.435-.991.702-1.036 1.727-1.291 2.291-.479 0 0 1.579 1.291.984 5.735l-3.846 2.894c-.821-1.385-3.708-2.236-1.864-7.159z" fill="#FFDFAE"/><path d="M241.008 154.83l-2.661.721-16.326-85.547 2.661-.721 16.326 85.547z" fill="#D8984D"/><path d="M237.961 143.234c.45 2.073-.201 3.195-1.122 3.474-.922.279-1.875-1.078-2.325-3.15-.45-2.072.45-3.186 1.372-3.465.922-.279 1.625 1.07 2.075 3.141zm-.562-6.394c1.094-.154 2.481 1.038 2.538 1.72.057.682-1.238.597-2.332.749-1.094.153-2.029-.274-2.085-.957-.056-.683.784-1.359 1.879-1.512z" fill="#FFDFAE"/><path d="M300.096 334.254c-.208.057-.861 11.304-.861 11.304l-1.139.052s-1.113-10.957-1.367-10.94c-3.35.218-4.298 10.965-8.658 10.965-.095 0-4.989.03-5.029-.005-1.019-.902 1.416-2.838 1.416-2.838s3.027-.758 3.961-1.892c3.059-3.715 7.485-11.771 8.487-12.824 1.388-1.457 3.712-1.329 3.712-1.329s1.408 6.989-.522 7.507z" fill="#37474F"/><path d="M302.903 144.95c.591 2.382 1.47 2.073 1.393 3.231a16.068 16.068 0 01-.524 1.868c-.011.038-.625-.885-1.652-3.48-1.06-2.672-2.418-5.272-2.178-6.048.034-.11.679-.067.779-.021.675.31 1.345 1.075 2.182 4.45z" fill="#5D5D7D"/><path d="M96.52 87.58c10.235 0 18.532-8.297 18.532-18.532s-8.297-18.532-18.532-18.532-18.532 8.297-18.532 18.532S86.285 87.58 96.52 87.58z" fill="#FFAC4B"/><path d="M90.916 75.805h10.519a.763.763 0 00.75-.608l2.578-12.377a.762.762 0 00-.747-.92H83.954a.764.764 0 00-.666 1.14l6.961 12.376a.764.764 0 00.667.389zm12.801-.032l-1.004-.225 3.347-14.952 3.14.186-.061 1.027-2.267-.135-3.155 14.099zm.422 3.894l-1.952-.032c-10.63-.178-11.62-.219-11.882-1.075-.176-.576.432-1.003.797-1.257 1.782-1.248 10.448-.747 11.431-.685l-.064 1.026c-3.572-.222-9.656-.282-10.777.5l-.116.083c1.191.22 4.774.28 10.629.378l1.952.033-.018 1.03zm-9.958 2.091a.99.99 0 100-1.98.99.99 0 000 1.98zm4.096 0a.99.99 0 100-1.98.99.99 0 000 1.98z" fill="#fff"/><path d="M89.989 71.268h3.546a.224.224 0 00.22-.178l.871-4.184a.223.223 0 00-.22-.27h-6.77a.224.224 0 00-.196.333l2.353 4.184a.224.224 0 00.196.115zm5.087 0h6.247a.363.363 0 00.351-.298l.771-3.882a.368.368 0 00-.193-.412.371.371 0 00-.157-.04h-6.346a.362.362 0 00-.352.308l-.671 3.882a.37.37 0 00.35.442z" fill="#F9B25F"/><path d="M105.419 175.582c10.235 0 18.532-8.297 18.532-18.532s-8.297-18.532-18.532-18.532-18.532 8.297-18.532 18.532 8.297 18.532 18.532 18.532z" fill="#6FAFD8"/><path d="M101.804 164.004c.619-.737.052-2.232-1.266-3.338-1.318-1.107-2.889-1.406-3.507-.669-.62.737-.052 2.232 1.266 3.338 1.318 1.107 2.888 1.406 3.507.669z" fill="#fff"/><path d="M109.616 166.572l-1.083 1.291a.518.518 0 01-.727.02l-4.537-3.808a.52.52 0 01-.106-.72l1.083-1.291a.516.516 0 01.728-.021l3.329 3.593 1.208.215a.516.516 0 01.105.721z" fill="#FF6369"/><path d="M109.635 153.673a2.844 2.844 0 100-5.689 2.844 2.844 0 000 5.689z" fill="#fff"/><path d="M113.855 155.089c-4.678.788-10.534 7.265-10.534 7.265l-4.653-3.906s6.506-7.017 5.053-11.865c-.017-.058 10.173 8.498 10.134 8.506z" fill="#fff"/><path d="M96.79 158.71l1.907-2.271a.906.906 0 011.28-.112l4.931 4.14a.905.905 0 01.112 1.279l-1.907 2.271a.905.905 0 01-1.279.112l-4.931-4.139a.91.91 0 01-.112-1.28z" fill="#FF6369"/><path d="M103.534 146.306a.542.542 0 01.763-.067l9.798 8.226a.542.542 0 01-.301.954.545.545 0 01-.395-.125l-9.799-8.225a.54.54 0 01-.066-.763z" fill="#56557E"/><path d="M206.774 37.064c10.235 0 18.532-8.297 18.532-18.532S217.009 0 206.774 0s-18.532 8.297-18.532 18.532 8.297 18.532 18.532 18.532z" fill="#94E15C"/><path d="M204.128 25.5a8.266 8.266 0 004.345-.092c2.282-.697 3.249-2.309 2.716-4.052-.494-1.615-1.698-2.257-4.306-2.442-3.124-.139-5.315-1.068-6.059-3.504-.822-2.692.799-5.372 4.157-6.399a8.213 8.213 0 014.079-.322l-.06 2.009a7.197 7.197 0 00-3.532.181c-2.359.72-2.826 2.405-2.466 3.582.493 1.615 1.787 2.09 4.454 2.284 3.267.236 5.185 1.193 5.96 3.731.814 2.666-.456 5.577-4.533 6.822-1.666.509-3.636.577-4.748.243l-.007-2.04z" fill="#fff"/><path d="M202.895 8.084l1.859-.567.841 2.754-1.859.567-.841-2.754zm5.417 17.742l1.859-.568.842 2.754-1.859.568-.842-2.754z" fill="#fff"/><path d="M118.063 347.155c-35.264 0-63.954-28.689-63.954-63.954 0-35.264 28.691-63.954 63.954-63.954 35.262 0 63.955 28.689 63.955 63.954 0 35.264-28.69 63.954-63.955 63.954zm0-117.619a53.664 53.664 0 00-52.632 64.137 53.665 53.665 0 00106.3-10.472 53.728 53.728 0 00-53.668-53.666v.001z" fill="#FF6369"/><path d="M118.064 326.265a43.06 43.06 0 01-39.788-26.585 43.066 43.066 0 1182.854-16.478 43.115 43.115 0 01-43.066 43.063zm0-75.844a32.783 32.783 0 00-30.281 20.234 32.776 32.776 0 1063.058 12.543 32.813 32.813 0 00-32.777-32.776v-.001z" fill="#FF6369"/><path d="M118.064 303.514a20.315 20.315 0 01-19.924-24.276 20.32 20.32 0 015.559-10.401 20.309 20.309 0 0131.254 3.078 20.316 20.316 0 013.424 11.286 20.335 20.335 0 01-20.313 20.313zm0-30.338a10.03 10.03 0 00-9.263 6.188 10.032 10.032 0 002.174 10.926 10.026 10.026 0 0017.114-7.089 10.036 10.036 0 00-10.025-10.025z" fill="#FF6369"/><path d="M118.066 284.174a1.347 1.347 0 100-2.694 1.347 1.347 0 000 2.694z" fill="#FF6369"/><path d="M43.498 224.95l1.731-2.128 70.871 57.636-1.731 2.128-70.871-57.636z" fill="#37474F"/><path d="M109.256 283.627l-.022-2.743 6.276-.049-1.816-6.227 2.633-.768 2.832 9.71-9.903.077z" fill="#37474F"/><path d="M42.191 222.998l14.302 11.074.046-6.404-14.3-11.074-.048 6.404z" fill="#FF6369"/><path d="M50.335 235.681l-14.302-11.074 6.189-1.649 14.301 11.074-6.188 1.649z" fill="#F9B25F"/></svg>